<svg width="1960" height="649" viewBox="0 0 1960 649" fill="none" xmlns="http://www.w3.org/2000/svg">
<mask id="path-1-outside-1_159_4" maskUnits="userSpaceOnUse" x="-1" y="-1" width="1963" height="651" fill="black">
<rect fill="white" x="-1" y="-1" width="1963" height="651"/>
<path d="M467.481 18.156V196H444.094V63.388L384.984 196H368.536L309.169 63.131V196H285.782V18.156H310.968L376.76 165.16L442.552 18.156H467.481ZM568.566 198.313C555.374 198.313 543.38 195.315 532.586 189.318C521.964 183.321 513.568 174.84 507.4 163.875C501.404 152.738 498.405 139.888 498.405 125.325C498.405 110.933 501.489 98.2543 507.657 87.289C513.997 76.1523 522.563 67.6713 533.357 61.846C544.151 55.8493 556.23 52.851 569.594 52.851C582.958 52.851 595.037 55.8493 605.831 61.846C616.626 67.6713 625.107 76.0667 631.274 87.032C637.614 97.9973 640.783 110.762 640.783 125.325C640.783 139.888 637.528 152.738 631.017 163.875C624.678 174.84 616.026 183.321 605.061 189.318C594.095 195.315 581.93 198.313 568.566 198.313ZM568.566 177.753C576.962 177.753 584.843 175.783 592.21 171.842C599.578 167.901 605.489 161.99 609.943 154.109C614.569 146.228 616.882 136.633 616.882 125.325C616.882 114.017 614.655 104.422 610.2 96.541C605.746 88.6597 599.92 82.8343 592.724 79.065C585.528 75.1243 577.733 73.154 569.337 73.154C560.771 73.154 552.889 75.1243 545.693 79.065C538.669 82.8343 533.015 88.6597 528.731 96.541C524.448 104.422 522.306 114.017 522.306 125.325C522.306 136.804 524.362 146.485 528.474 154.366C532.758 162.247 538.412 168.158 545.436 172.099C552.461 175.868 560.171 177.753 568.566 177.753ZM723.961 174.412L767.651 55.164H792.58L737.325 196H710.083L654.828 55.164H680.014L723.961 174.412ZM827.673 32.291C823.218 32.291 819.449 30.749 816.365 27.665C813.281 24.581 811.739 20.8117 811.739 16.357C811.739 11.9023 813.281 8.13299 816.365 5.04899C819.449 1.96499 823.218 0.42299 827.673 0.42299C831.956 0.42299 835.554 1.96499 838.467 5.04899C841.551 8.13299 843.093 11.9023 843.093 16.357C843.093 20.8117 841.551 24.581 838.467 27.665C835.554 30.749 831.956 32.291 827.673 32.291ZM838.981 55.164V196H815.594V55.164H838.981ZM947.459 52.594C964.592 52.594 978.47 57.8197 989.093 68.271C999.715 78.551 1005.03 93.457 1005.03 112.989V196H981.897V116.33C981.897 102.281 978.384 91.5723 971.36 84.205C964.335 76.6663 954.74 72.897 942.576 72.897C930.24 72.897 920.388 76.752 913.021 84.462C905.825 92.172 902.227 103.394 902.227 118.129V196H878.84V55.164H902.227V75.21C906.853 68.014 913.106 62.4457 920.988 58.505C929.04 54.5643 937.864 52.594 947.459 52.594ZM1101.31 52.851C1113.48 52.851 1124.1 55.5067 1133.18 60.818C1142.43 66.1293 1149.28 72.8113 1153.74 80.864V55.164H1177.38V199.084C1177.38 211.934 1174.64 223.328 1169.16 233.265C1163.68 243.374 1155.8 251.255 1145.52 256.909C1135.41 262.563 1123.58 265.39 1110.05 265.39C1091.55 265.39 1076.13 261.021 1063.79 252.283C1051.45 243.545 1044.17 231.637 1041.94 216.56H1065.07C1067.64 225.127 1072.96 231.98 1081.01 237.12C1089.06 242.431 1098.74 245.087 1110.05 245.087C1122.9 245.087 1133.35 241.061 1141.4 233.008C1149.63 224.955 1153.74 213.647 1153.74 199.084V169.529C1149.11 177.753 1142.26 184.606 1133.18 190.089C1124.1 195.572 1113.48 198.313 1101.31 198.313C1088.8 198.313 1077.41 195.229 1067.13 189.061C1057.02 182.893 1049.05 174.241 1043.23 163.104C1037.4 151.967 1034.49 139.289 1034.49 125.068C1034.49 110.676 1037.4 98.083 1043.23 87.289C1049.05 76.3237 1057.02 67.8427 1067.13 61.846C1077.41 55.8493 1088.8 52.851 1101.31 52.851ZM1153.74 125.325C1153.74 114.702 1151.6 105.45 1147.31 97.569C1143.03 89.6877 1137.21 83.691 1129.84 79.579C1122.64 75.2957 1114.68 73.154 1105.94 73.154C1097.2 73.154 1089.23 75.21 1082.04 79.322C1074.84 83.434 1069.1 89.4307 1064.82 97.312C1060.53 105.193 1058.39 114.445 1058.39 125.068C1058.39 135.862 1060.53 145.285 1064.82 153.338C1069.1 161.219 1074.84 167.302 1082.04 171.585C1089.23 175.697 1097.2 177.753 1105.94 177.753C1114.68 177.753 1122.64 175.697 1129.84 171.585C1137.21 167.302 1143.03 161.219 1147.31 153.338C1151.6 145.285 1153.74 135.948 1153.74 125.325ZM1313.95 74.439V157.45C1313.95 164.303 1315.41 169.186 1318.32 172.099C1321.23 174.84 1326.28 176.211 1333.48 176.211H1350.7V196H1329.63C1316.6 196 1306.84 193.002 1300.33 187.005C1293.82 181.008 1290.56 171.157 1290.56 157.45V74.439H1272.31V55.164H1290.56V19.698H1313.95V55.164H1350.7V74.439H1313.95ZM1448.94 52.594C1459.56 52.594 1469.16 54.907 1477.72 59.533C1486.29 63.9877 1492.97 70.7553 1497.77 79.836C1502.74 88.9167 1505.22 99.9677 1505.22 112.989V196H1482.09V116.33C1482.09 102.281 1478.58 91.5723 1471.56 84.205C1464.53 76.6663 1454.94 72.897 1442.77 72.897C1430.44 72.897 1420.58 76.752 1413.22 84.462C1406.02 92.172 1402.42 103.394 1402.42 118.129V196H1379.04V5.82H1402.42V75.21C1407.05 68.014 1413.39 62.4457 1421.44 58.505C1429.67 54.5643 1438.83 52.594 1448.94 52.594ZM1671.93 120.185C1671.93 124.64 1671.67 129.351 1671.15 134.32H1558.59C1559.45 148.198 1564.16 159.078 1572.72 166.959C1581.46 174.669 1592 178.524 1604.33 178.524C1614.44 178.524 1622.84 176.211 1629.52 171.585C1636.37 166.788 1641.17 160.448 1643.91 152.567H1669.1C1665.33 166.102 1657.79 177.153 1646.48 185.72C1635.17 194.115 1621.13 198.313 1604.33 198.313C1590.97 198.313 1578.98 195.315 1568.35 189.318C1557.9 183.321 1549.68 174.84 1543.68 163.875C1537.69 152.738 1534.69 139.888 1534.69 125.325C1534.69 110.762 1537.6 97.9973 1543.43 87.032C1549.25 76.0667 1557.39 67.6713 1567.84 61.846C1578.46 55.8493 1590.63 52.851 1604.33 52.851C1617.7 52.851 1629.52 55.7637 1639.8 61.589C1650.08 67.4143 1657.96 75.467 1663.44 85.747C1669.1 95.8557 1671.93 107.335 1671.93 120.185ZM1647.77 115.302C1647.77 106.393 1645.8 98.7683 1641.86 92.429C1637.92 85.9183 1632.52 81.0353 1625.67 77.78C1618.98 74.3533 1611.53 72.64 1603.31 72.64C1591.48 72.64 1581.38 76.4093 1572.98 83.948C1564.76 91.4867 1560.05 101.938 1558.85 115.302H1647.77ZM62.2383 583.799C50.4163 583.799 39.7937 581.743 30.3703 577.631C21.1183 573.348 13.8367 567.522 8.52534 560.155C3.21401 552.616 0.472678 543.964 0.301345 534.198H25.2303C26.087 542.593 29.5137 549.704 35.5103 555.529C41.6783 561.183 50.5877 564.01 62.2383 564.01C73.375 564.01 82.113 561.269 88.4523 555.786C94.963 550.132 98.2183 542.936 98.2183 534.198C98.2183 527.345 96.3337 521.776 92.5643 517.493C88.795 513.21 84.0834 509.954 78.4294 507.727C72.7753 505.5 65.151 503.101 55.5563 500.531C43.7343 497.447 34.2253 494.363 27.0293 491.279C20.0047 488.195 13.9223 483.398 8.78234 476.887C3.81368 470.205 1.32934 461.296 1.32934 450.159C1.32934 440.393 3.81368 431.741 8.78234 424.202C13.751 416.663 20.69 410.838 29.5993 406.726C38.68 402.614 49.0457 400.558 60.6964 400.558C77.487 400.558 91.1937 404.756 101.816 413.151C112.61 421.546 118.693 432.683 120.063 446.561H94.3633C93.5067 439.708 89.9087 433.711 83.5693 428.571C77.23 423.26 68.8347 420.604 58.3833 420.604C48.6173 420.604 40.6503 423.174 34.4823 428.314C28.3143 433.283 25.2303 440.307 25.2303 449.388C25.2303 455.899 27.0293 461.21 30.6273 465.322C34.3967 469.434 38.937 472.604 44.2483 474.831C49.731 476.887 57.3553 479.286 67.1213 482.027C78.9433 485.282 88.4523 488.538 95.6484 491.793C102.844 494.877 109.012 499.76 114.152 506.442C119.292 512.953 121.862 521.862 121.862 533.17C121.862 541.908 119.549 550.132 114.923 557.842C110.297 565.552 103.444 571.806 94.3633 576.603C85.2827 581.4 74.5743 583.799 62.2383 583.799ZM236.874 418.291C232.419 418.291 228.65 416.749 225.566 413.665C222.482 410.581 220.94 406.812 220.94 402.357C220.94 397.902 222.482 394.133 225.566 391.049C228.65 387.965 232.419 386.423 236.874 386.423C241.157 386.423 244.755 387.965 247.668 391.049C250.752 394.133 252.294 397.902 252.294 402.357C252.294 406.812 250.752 410.581 247.668 413.665C244.755 416.749 241.157 418.291 236.874 418.291ZM248.182 441.164V582H224.795V441.164H248.182ZM279.303 511.068C279.303 496.676 282.216 484.083 288.041 473.289C293.866 462.324 301.833 453.843 311.942 447.846C322.222 441.849 333.701 438.851 346.38 438.851C357.345 438.851 367.54 441.421 376.963 446.561C386.386 451.53 393.582 458.126 398.551 466.35V391.82H422.195V582H398.551V555.529C393.925 563.924 387.072 570.863 377.991 576.346C368.91 581.657 358.288 584.313 346.123 584.313C333.616 584.313 322.222 581.229 311.942 575.061C301.833 568.893 293.866 560.241 288.041 549.104C282.216 537.967 279.303 525.289 279.303 511.068ZM398.551 511.325C398.551 500.702 396.409 491.45 392.126 483.569C387.843 475.688 382.017 469.691 374.65 465.579C367.454 461.296 359.487 459.154 350.749 459.154C342.011 459.154 334.044 461.21 326.848 465.322C319.652 469.434 313.912 475.431 309.629 483.312C305.346 491.193 303.204 500.445 303.204 511.068C303.204 521.862 305.346 531.285 309.629 539.338C313.912 547.219 319.652 553.302 326.848 557.585C334.044 561.697 342.011 563.753 350.749 563.753C359.487 563.753 367.454 561.697 374.65 557.585C382.017 553.302 387.843 547.219 392.126 539.338C396.409 531.285 398.551 521.948 398.551 511.325ZM590.217 506.185C590.217 510.64 589.96 515.351 589.446 520.32H476.88C477.736 534.198 482.448 545.078 491.015 552.959C499.753 560.669 510.29 564.524 522.626 564.524C532.734 564.524 541.13 562.211 547.812 557.585C554.665 552.788 559.462 546.448 562.204 538.567H587.39C583.62 552.102 576.082 563.153 564.774 571.72C553.466 580.115 539.416 584.313 522.626 584.313C509.262 584.313 497.268 581.315 486.646 575.318C476.194 569.321 467.97 560.84 461.974 549.875C455.977 538.738 452.979 525.888 452.979 511.325C452.979 496.762 455.891 483.997 461.717 473.032C467.542 462.067 475.68 453.671 486.132 447.846C496.754 441.849 508.919 438.851 522.626 438.851C535.99 438.851 547.812 441.764 558.092 447.589C568.372 453.414 576.253 461.467 581.736 471.747C587.39 481.856 590.217 493.335 590.217 506.185ZM566.059 501.302C566.059 492.393 564.088 484.768 560.148 478.429C556.207 471.918 550.81 467.035 543.957 463.78C537.275 460.353 529.822 458.64 521.598 458.64C509.776 458.64 499.667 462.409 491.272 469.948C483.048 477.487 478.336 487.938 477.137 501.302H566.059ZM644.474 464.037C648.586 455.984 654.411 449.731 661.95 445.276C669.66 440.821 678.998 438.594 689.963 438.594V462.752H683.795C657.581 462.752 644.474 476.973 644.474 505.414V582H621.087V441.164H644.474V464.037ZM766.818 584.313C756.024 584.313 746.344 582.514 737.777 578.916C729.21 575.147 722.443 570.007 717.474 563.496C712.505 556.814 709.764 549.19 709.25 540.623H733.408C734.093 547.648 737.349 553.387 743.174 557.842C749.171 562.297 756.966 564.524 766.561 564.524C775.47 564.524 782.495 562.554 787.635 558.613C792.775 554.672 795.345 549.704 795.345 543.707C795.345 537.539 792.604 532.999 787.121 530.086C781.638 527.002 773.157 524.004 761.678 521.091C751.227 518.35 742.66 515.608 735.978 512.867C729.467 509.954 723.813 505.757 719.016 500.274C714.39 494.62 712.077 487.253 712.077 478.172C712.077 470.976 714.219 464.38 718.502 458.383C722.785 452.386 728.868 447.675 736.749 444.248C744.63 440.65 753.625 438.851 763.734 438.851C779.325 438.851 791.918 442.792 801.513 450.673C811.108 458.554 816.248 469.348 816.933 483.055H793.546C793.032 475.688 790.034 469.777 784.551 465.322C779.24 460.867 772.044 458.64 762.963 458.64C754.568 458.64 747.886 460.439 742.917 464.037C737.948 467.635 735.464 472.347 735.464 478.172C735.464 482.798 736.92 486.653 739.833 489.737C742.917 492.65 746.686 495.048 751.141 496.933C755.767 498.646 762.106 500.617 770.159 502.844C780.268 505.585 788.492 508.327 794.831 511.068C801.17 513.638 806.567 517.579 811.022 522.89C815.648 528.201 818.047 535.14 818.218 543.707C818.218 551.417 816.076 558.356 811.793 564.524C807.51 570.692 801.427 575.575 793.546 579.173C785.836 582.6 776.927 584.313 766.818 584.313ZM981.172 584.313C967.979 584.313 955.986 581.315 945.192 575.318C934.569 569.321 926.174 560.84 920.006 549.875C914.009 538.738 911.011 525.888 911.011 511.325C911.011 496.933 914.095 484.254 920.263 473.289C926.602 462.152 935.169 453.671 945.963 447.846C956.757 441.849 968.836 438.851 982.2 438.851C995.564 438.851 1007.64 441.849 1018.44 447.846C1029.23 453.671 1037.71 462.067 1043.88 473.032C1050.22 483.997 1053.39 496.762 1053.39 511.325C1053.39 525.888 1050.13 538.738 1043.62 549.875C1037.28 560.84 1028.63 569.321 1017.67 575.318C1006.7 581.315 994.536 584.313 981.172 584.313ZM981.172 563.753C989.567 563.753 997.449 561.783 1004.82 557.842C1012.18 553.901 1018.09 547.99 1022.55 540.109C1027.17 532.228 1029.49 522.633 1029.49 511.325C1029.49 500.017 1027.26 490.422 1022.81 482.541C1018.35 474.66 1012.53 468.834 1005.33 465.065C998.134 461.124 990.338 459.154 981.943 459.154C973.376 459.154 965.495 461.124 958.299 465.065C951.274 468.834 945.62 474.66 941.337 482.541C937.054 490.422 934.912 500.017 934.912 511.325C934.912 522.804 936.968 532.485 941.08 540.366C945.363 548.247 951.017 554.158 958.042 558.099C965.067 561.868 972.777 563.753 981.172 563.753ZM1141.45 460.439H1111.89V582H1088.51V460.439H1070.26V441.164H1088.51V431.141C1088.51 415.378 1092.53 403.899 1100.59 396.703C1108.81 389.336 1121.92 385.652 1139.91 385.652V405.184C1129.63 405.184 1122.35 407.24 1118.06 411.352C1113.95 415.293 1111.89 421.889 1111.89 431.141V441.164H1141.45V460.439ZM1357 455.299C1357 470.205 1351.86 482.627 1341.58 492.564C1331.47 502.33 1315.96 507.213 1295.06 507.213H1260.62V582H1237.23V402.871H1295.06C1315.28 402.871 1330.61 407.754 1341.06 417.52C1351.68 427.286 1357 439.879 1357 455.299ZM1295.06 487.938C1308.08 487.938 1317.68 485.111 1323.84 479.457C1330.01 473.803 1333.1 465.75 1333.1 455.299C1333.1 433.197 1320.42 422.146 1295.06 422.146H1260.62V487.938H1295.06ZM1447.49 584.313C1434.29 584.313 1422.3 581.315 1411.51 575.318C1400.88 569.321 1392.49 560.84 1386.32 549.875C1380.32 538.738 1377.33 525.888 1377.33 511.325C1377.33 496.933 1380.41 484.254 1386.58 473.289C1392.92 462.152 1401.48 453.671 1412.28 447.846C1423.07 441.849 1435.15 438.851 1448.51 438.851C1461.88 438.851 1473.96 441.849 1484.75 447.846C1495.55 453.671 1504.03 462.067 1510.19 473.032C1516.53 483.997 1519.7 496.762 1519.7 511.325C1519.7 525.888 1516.45 538.738 1509.94 549.875C1503.6 560.84 1494.95 569.321 1483.98 575.318C1473.02 581.315 1460.85 584.313 1447.49 584.313ZM1447.49 563.753C1455.88 563.753 1463.76 561.783 1471.13 557.842C1478.5 553.901 1484.41 547.99 1488.86 540.109C1493.49 532.228 1495.8 522.633 1495.8 511.325C1495.8 500.017 1493.58 490.422 1489.12 482.541C1484.67 474.66 1478.84 468.834 1471.64 465.065C1464.45 461.124 1456.65 459.154 1448.26 459.154C1439.69 459.154 1431.81 461.124 1424.61 465.065C1417.59 468.834 1411.93 474.66 1407.65 482.541C1403.37 490.422 1401.23 500.017 1401.23 511.325C1401.23 522.804 1403.28 532.485 1407.39 540.366C1411.68 548.247 1417.33 554.158 1424.36 558.099C1431.38 561.868 1439.09 563.753 1447.49 563.753ZM1631.05 418.291C1626.59 418.291 1622.82 416.749 1619.74 413.665C1616.66 410.581 1615.11 406.812 1615.11 402.357C1615.11 397.902 1616.66 394.133 1619.74 391.049C1622.82 387.965 1626.59 386.423 1631.05 386.423C1635.33 386.423 1638.93 387.965 1641.84 391.049C1644.93 394.133 1646.47 397.902 1646.47 402.357C1646.47 406.812 1644.93 410.581 1641.84 413.665C1638.93 416.749 1635.33 418.291 1631.05 418.291ZM1642.36 441.164V582H1618.97V441.164H1642.36ZM1673.48 511.325C1673.48 496.762 1676.39 484.083 1682.22 473.289C1688.04 462.324 1696.09 453.843 1706.37 447.846C1716.83 441.849 1728.73 438.851 1742.1 438.851C1759.4 438.851 1773.62 443.049 1784.76 451.444C1796.07 459.839 1803.52 471.49 1807.12 486.396H1781.93C1779.53 477.829 1774.82 471.062 1767.8 466.093C1760.94 461.124 1752.38 458.64 1742.1 458.64C1728.73 458.64 1717.94 463.266 1709.71 472.518C1701.49 481.599 1697.38 494.534 1697.38 511.325C1697.38 528.287 1701.49 541.394 1709.71 550.646C1717.94 559.898 1728.73 564.524 1742.1 564.524C1752.38 564.524 1760.94 562.125 1767.8 557.328C1774.65 552.531 1779.36 545.677 1781.93 536.768H1807.12C1803.35 551.16 1795.81 562.725 1784.5 571.463C1773.19 580.03 1759.06 584.313 1742.1 584.313C1728.73 584.313 1716.83 581.315 1706.37 575.318C1696.09 569.321 1688.04 560.84 1682.22 549.875C1676.39 538.91 1673.48 526.06 1673.48 511.325ZM1959.63 441.164L1874.82 648.306H1850.66L1878.42 580.458L1821.62 441.164H1847.58L1891.78 555.272L1935.47 441.164H1959.63Z"/>
</mask>
<path d="M467.481 18.156V196H444.094V63.388L384.984 196H368.536L309.169 63.131V196H285.782V18.156H310.968L376.76 165.16L442.552 18.156H467.481ZM568.566 198.313C555.374 198.313 543.38 195.315 532.586 189.318C521.964 183.321 513.568 174.84 507.4 163.875C501.404 152.738 498.405 139.888 498.405 125.325C498.405 110.933 501.489 98.2543 507.657 87.289C513.997 76.1523 522.563 67.6713 533.357 61.846C544.151 55.8493 556.23 52.851 569.594 52.851C582.958 52.851 595.037 55.8493 605.831 61.846C616.626 67.6713 625.107 76.0667 631.274 87.032C637.614 97.9973 640.783 110.762 640.783 125.325C640.783 139.888 637.528 152.738 631.017 163.875C624.678 174.84 616.026 183.321 605.061 189.318C594.095 195.315 581.93 198.313 568.566 198.313ZM568.566 177.753C576.962 177.753 584.843 175.783 592.21 171.842C599.578 167.901 605.489 161.99 609.943 154.109C614.569 146.228 616.882 136.633 616.882 125.325C616.882 114.017 614.655 104.422 610.2 96.541C605.746 88.6597 599.92 82.8343 592.724 79.065C585.528 75.1243 577.733 73.154 569.337 73.154C560.771 73.154 552.889 75.1243 545.693 79.065C538.669 82.8343 533.015 88.6597 528.731 96.541C524.448 104.422 522.306 114.017 522.306 125.325C522.306 136.804 524.362 146.485 528.474 154.366C532.758 162.247 538.412 168.158 545.436 172.099C552.461 175.868 560.171 177.753 568.566 177.753ZM723.961 174.412L767.651 55.164H792.58L737.325 196H710.083L654.828 55.164H680.014L723.961 174.412ZM827.673 32.291C823.218 32.291 819.449 30.749 816.365 27.665C813.281 24.581 811.739 20.8117 811.739 16.357C811.739 11.9023 813.281 8.13299 816.365 5.04899C819.449 1.96499 823.218 0.42299 827.673 0.42299C831.956 0.42299 835.554 1.96499 838.467 5.04899C841.551 8.13299 843.093 11.9023 843.093 16.357C843.093 20.8117 841.551 24.581 838.467 27.665C835.554 30.749 831.956 32.291 827.673 32.291ZM838.981 55.164V196H815.594V55.164H838.981ZM947.459 52.594C964.592 52.594 978.47 57.8197 989.093 68.271C999.715 78.551 1005.03 93.457 1005.03 112.989V196H981.897V116.33C981.897 102.281 978.384 91.5723 971.36 84.205C964.335 76.6663 954.74 72.897 942.576 72.897C930.24 72.897 920.388 76.752 913.021 84.462C905.825 92.172 902.227 103.394 902.227 118.129V196H878.84V55.164H902.227V75.21C906.853 68.014 913.106 62.4457 920.988 58.505C929.04 54.5643 937.864 52.594 947.459 52.594ZM1101.31 52.851C1113.48 52.851 1124.1 55.5067 1133.18 60.818C1142.43 66.1293 1149.28 72.8113 1153.74 80.864V55.164H1177.38V199.084C1177.38 211.934 1174.64 223.328 1169.16 233.265C1163.68 243.374 1155.8 251.255 1145.52 256.909C1135.41 262.563 1123.58 265.39 1110.05 265.39C1091.55 265.39 1076.13 261.021 1063.79 252.283C1051.45 243.545 1044.17 231.637 1041.94 216.56H1065.07C1067.64 225.127 1072.96 231.98 1081.01 237.12C1089.06 242.431 1098.74 245.087 1110.05 245.087C1122.9 245.087 1133.35 241.061 1141.4 233.008C1149.63 224.955 1153.74 213.647 1153.74 199.084V169.529C1149.11 177.753 1142.26 184.606 1133.18 190.089C1124.1 195.572 1113.48 198.313 1101.31 198.313C1088.8 198.313 1077.41 195.229 1067.13 189.061C1057.02 182.893 1049.05 174.241 1043.23 163.104C1037.4 151.967 1034.49 139.289 1034.49 125.068C1034.49 110.676 1037.4 98.083 1043.23 87.289C1049.05 76.3237 1057.02 67.8427 1067.13 61.846C1077.41 55.8493 1088.8 52.851 1101.31 52.851ZM1153.74 125.325C1153.74 114.702 1151.6 105.45 1147.31 97.569C1143.03 89.6877 1137.21 83.691 1129.84 79.579C1122.64 75.2957 1114.68 73.154 1105.94 73.154C1097.2 73.154 1089.23 75.21 1082.04 79.322C1074.84 83.434 1069.1 89.4307 1064.82 97.312C1060.53 105.193 1058.39 114.445 1058.39 125.068C1058.39 135.862 1060.53 145.285 1064.82 153.338C1069.1 161.219 1074.84 167.302 1082.04 171.585C1089.23 175.697 1097.2 177.753 1105.94 177.753C1114.68 177.753 1122.64 175.697 1129.84 171.585C1137.21 167.302 1143.03 161.219 1147.31 153.338C1151.6 145.285 1153.74 135.948 1153.74 125.325ZM1313.95 74.439V157.45C1313.95 164.303 1315.41 169.186 1318.32 172.099C1321.23 174.84 1326.28 176.211 1333.48 176.211H1350.7V196H1329.63C1316.6 196 1306.84 193.002 1300.33 187.005C1293.82 181.008 1290.56 171.157 1290.56 157.45V74.439H1272.31V55.164H1290.56V19.698H1313.95V55.164H1350.7V74.439H1313.95ZM1448.94 52.594C1459.56 52.594 1469.16 54.907 1477.72 59.533C1486.29 63.9877 1492.97 70.7553 1497.77 79.836C1502.74 88.9167 1505.22 99.9677 1505.22 112.989V196H1482.09V116.33C1482.09 102.281 1478.58 91.5723 1471.56 84.205C1464.53 76.6663 1454.94 72.897 1442.77 72.897C1430.44 72.897 1420.58 76.752 1413.22 84.462C1406.02 92.172 1402.42 103.394 1402.42 118.129V196H1379.04V5.82H1402.42V75.21C1407.05 68.014 1413.39 62.4457 1421.44 58.505C1429.67 54.5643 1438.83 52.594 1448.94 52.594ZM1671.93 120.185C1671.93 124.64 1671.67 129.351 1671.15 134.32H1558.59C1559.45 148.198 1564.16 159.078 1572.72 166.959C1581.46 174.669 1592 178.524 1604.33 178.524C1614.44 178.524 1622.84 176.211 1629.52 171.585C1636.37 166.788 1641.17 160.448 1643.91 152.567H1669.1C1665.33 166.102 1657.79 177.153 1646.48 185.72C1635.17 194.115 1621.13 198.313 1604.33 198.313C1590.97 198.313 1578.98 195.315 1568.35 189.318C1557.9 183.321 1549.68 174.84 1543.68 163.875C1537.69 152.738 1534.69 139.888 1534.69 125.325C1534.69 110.762 1537.6 97.9973 1543.43 87.032C1549.25 76.0667 1557.39 67.6713 1567.84 61.846C1578.46 55.8493 1590.63 52.851 1604.33 52.851C1617.7 52.851 1629.52 55.7637 1639.8 61.589C1650.08 67.4143 1657.96 75.467 1663.44 85.747C1669.1 95.8557 1671.93 107.335 1671.93 120.185ZM1647.77 115.302C1647.77 106.393 1645.8 98.7683 1641.86 92.429C1637.92 85.9183 1632.52 81.0353 1625.67 77.78C1618.98 74.3533 1611.53 72.64 1603.31 72.64C1591.48 72.64 1581.38 76.4093 1572.98 83.948C1564.76 91.4867 1560.05 101.938 1558.85 115.302H1647.77ZM62.2383 583.799C50.4163 583.799 39.7937 581.743 30.3703 577.631C21.1183 573.348 13.8367 567.522 8.52534 560.155C3.21401 552.616 0.472678 543.964 0.301345 534.198H25.2303C26.087 542.593 29.5137 549.704 35.5103 555.529C41.6783 561.183 50.5877 564.01 62.2383 564.01C73.375 564.01 82.113 561.269 88.4523 555.786C94.963 550.132 98.2183 542.936 98.2183 534.198C98.2183 527.345 96.3337 521.776 92.5643 517.493C88.795 513.21 84.0834 509.954 78.4294 507.727C72.7753 505.5 65.151 503.101 55.5563 500.531C43.7343 497.447 34.2253 494.363 27.0293 491.279C20.0047 488.195 13.9223 483.398 8.78234 476.887C3.81368 470.205 1.32934 461.296 1.32934 450.159C1.32934 440.393 3.81368 431.741 8.78234 424.202C13.751 416.663 20.69 410.838 29.5993 406.726C38.68 402.614 49.0457 400.558 60.6964 400.558C77.487 400.558 91.1937 404.756 101.816 413.151C112.61 421.546 118.693 432.683 120.063 446.561H94.3633C93.5067 439.708 89.9087 433.711 83.5693 428.571C77.23 423.26 68.8347 420.604 58.3833 420.604C48.6173 420.604 40.6503 423.174 34.4823 428.314C28.3143 433.283 25.2303 440.307 25.2303 449.388C25.2303 455.899 27.0293 461.21 30.6273 465.322C34.3967 469.434 38.937 472.604 44.2483 474.831C49.731 476.887 57.3553 479.286 67.1213 482.027C78.9433 485.282 88.4523 488.538 95.6484 491.793C102.844 494.877 109.012 499.76 114.152 506.442C119.292 512.953 121.862 521.862 121.862 533.17C121.862 541.908 119.549 550.132 114.923 557.842C110.297 565.552 103.444 571.806 94.3633 576.603C85.2827 581.4 74.5743 583.799 62.2383 583.799ZM236.874 418.291C232.419 418.291 228.65 416.749 225.566 413.665C222.482 410.581 220.94 406.812 220.94 402.357C220.94 397.902 222.482 394.133 225.566 391.049C228.65 387.965 232.419 386.423 236.874 386.423C241.157 386.423 244.755 387.965 247.668 391.049C250.752 394.133 252.294 397.902 252.294 402.357C252.294 406.812 250.752 410.581 247.668 413.665C244.755 416.749 241.157 418.291 236.874 418.291ZM248.182 441.164V582H224.795V441.164H248.182ZM279.303 511.068C279.303 496.676 282.216 484.083 288.041 473.289C293.866 462.324 301.833 453.843 311.942 447.846C322.222 441.849 333.701 438.851 346.38 438.851C357.345 438.851 367.54 441.421 376.963 446.561C386.386 451.53 393.582 458.126 398.551 466.35V391.82H422.195V582H398.551V555.529C393.925 563.924 387.072 570.863 377.991 576.346C368.91 581.657 358.288 584.313 346.123 584.313C333.616 584.313 322.222 581.229 311.942 575.061C301.833 568.893 293.866 560.241 288.041 549.104C282.216 537.967 279.303 525.289 279.303 511.068ZM398.551 511.325C398.551 500.702 396.409 491.45 392.126 483.569C387.843 475.688 382.017 469.691 374.65 465.579C367.454 461.296 359.487 459.154 350.749 459.154C342.011 459.154 334.044 461.21 326.848 465.322C319.652 469.434 313.912 475.431 309.629 483.312C305.346 491.193 303.204 500.445 303.204 511.068C303.204 521.862 305.346 531.285 309.629 539.338C313.912 547.219 319.652 553.302 326.848 557.585C334.044 561.697 342.011 563.753 350.749 563.753C359.487 563.753 367.454 561.697 374.65 557.585C382.017 553.302 387.843 547.219 392.126 539.338C396.409 531.285 398.551 521.948 398.551 511.325ZM590.217 506.185C590.217 510.64 589.96 515.351 589.446 520.32H476.88C477.736 534.198 482.448 545.078 491.015 552.959C499.753 560.669 510.29 564.524 522.626 564.524C532.734 564.524 541.13 562.211 547.812 557.585C554.665 552.788 559.462 546.448 562.204 538.567H587.39C583.62 552.102 576.082 563.153 564.774 571.72C553.466 580.115 539.416 584.313 522.626 584.313C509.262 584.313 497.268 581.315 486.646 575.318C476.194 569.321 467.97 560.84 461.974 549.875C455.977 538.738 452.979 525.888 452.979 511.325C452.979 496.762 455.891 483.997 461.717 473.032C467.542 462.067 475.68 453.671 486.132 447.846C496.754 441.849 508.919 438.851 522.626 438.851C535.99 438.851 547.812 441.764 558.092 447.589C568.372 453.414 576.253 461.467 581.736 471.747C587.39 481.856 590.217 493.335 590.217 506.185ZM566.059 501.302C566.059 492.393 564.088 484.768 560.148 478.429C556.207 471.918 550.81 467.035 543.957 463.78C537.275 460.353 529.822 458.64 521.598 458.64C509.776 458.64 499.667 462.409 491.272 469.948C483.048 477.487 478.336 487.938 477.137 501.302H566.059ZM644.474 464.037C648.586 455.984 654.411 449.731 661.95 445.276C669.66 440.821 678.998 438.594 689.963 438.594V462.752H683.795C657.581 462.752 644.474 476.973 644.474 505.414V582H621.087V441.164H644.474V464.037ZM766.818 584.313C756.024 584.313 746.344 582.514 737.777 578.916C729.21 575.147 722.443 570.007 717.474 563.496C712.505 556.814 709.764 549.19 709.25 540.623H733.408C734.093 547.648 737.349 553.387 743.174 557.842C749.171 562.297 756.966 564.524 766.561 564.524C775.47 564.524 782.495 562.554 787.635 558.613C792.775 554.672 795.345 549.704 795.345 543.707C795.345 537.539 792.604 532.999 787.121 530.086C781.638 527.002 773.157 524.004 761.678 521.091C751.227 518.35 742.66 515.608 735.978 512.867C729.467 509.954 723.813 505.757 719.016 500.274C714.39 494.62 712.077 487.253 712.077 478.172C712.077 470.976 714.219 464.38 718.502 458.383C722.785 452.386 728.868 447.675 736.749 444.248C744.63 440.65 753.625 438.851 763.734 438.851C779.325 438.851 791.918 442.792 801.513 450.673C811.108 458.554 816.248 469.348 816.933 483.055H793.546C793.032 475.688 790.034 469.777 784.551 465.322C779.24 460.867 772.044 458.64 762.963 458.64C754.568 458.64 747.886 460.439 742.917 464.037C737.948 467.635 735.464 472.347 735.464 478.172C735.464 482.798 736.92 486.653 739.833 489.737C742.917 492.65 746.686 495.048 751.141 496.933C755.767 498.646 762.106 500.617 770.159 502.844C780.268 505.585 788.492 508.327 794.831 511.068C801.17 513.638 806.567 517.579 811.022 522.89C815.648 528.201 818.047 535.14 818.218 543.707C818.218 551.417 816.076 558.356 811.793 564.524C807.51 570.692 801.427 575.575 793.546 579.173C785.836 582.6 776.927 584.313 766.818 584.313ZM981.172 584.313C967.979 584.313 955.986 581.315 945.192 575.318C934.569 569.321 926.174 560.84 920.006 549.875C914.009 538.738 911.011 525.888 911.011 511.325C911.011 496.933 914.095 484.254 920.263 473.289C926.602 462.152 935.169 453.671 945.963 447.846C956.757 441.849 968.836 438.851 982.2 438.851C995.564 438.851 1007.64 441.849 1018.44 447.846C1029.23 453.671 1037.71 462.067 1043.88 473.032C1050.22 483.997 1053.39 496.762 1053.39 511.325C1053.39 525.888 1050.13 538.738 1043.62 549.875C1037.28 560.84 1028.63 569.321 1017.67 575.318C1006.7 581.315 994.536 584.313 981.172 584.313ZM981.172 563.753C989.567 563.753 997.449 561.783 1004.82 557.842C1012.18 553.901 1018.09 547.99 1022.55 540.109C1027.17 532.228 1029.49 522.633 1029.49 511.325C1029.49 500.017 1027.26 490.422 1022.81 482.541C1018.35 474.66 1012.53 468.834 1005.33 465.065C998.134 461.124 990.338 459.154 981.943 459.154C973.376 459.154 965.495 461.124 958.299 465.065C951.274 468.834 945.62 474.66 941.337 482.541C937.054 490.422 934.912 500.017 934.912 511.325C934.912 522.804 936.968 532.485 941.08 540.366C945.363 548.247 951.017 554.158 958.042 558.099C965.067 561.868 972.777 563.753 981.172 563.753ZM1141.45 460.439H1111.89V582H1088.51V460.439H1070.26V441.164H1088.51V431.141C1088.51 415.378 1092.53 403.899 1100.59 396.703C1108.81 389.336 1121.92 385.652 1139.91 385.652V405.184C1129.63 405.184 1122.35 407.24 1118.06 411.352C1113.95 415.293 1111.89 421.889 1111.89 431.141V441.164H1141.45V460.439ZM1357 455.299C1357 470.205 1351.86 482.627 1341.58 492.564C1331.47 502.33 1315.96 507.213 1295.06 507.213H1260.62V582H1237.23V402.871H1295.06C1315.28 402.871 1330.61 407.754 1341.06 417.52C1351.68 427.286 1357 439.879 1357 455.299ZM1295.06 487.938C1308.08 487.938 1317.68 485.111 1323.84 479.457C1330.01 473.803 1333.1 465.75 1333.1 455.299C1333.1 433.197 1320.42 422.146 1295.06 422.146H1260.62V487.938H1295.06ZM1447.49 584.313C1434.29 584.313 1422.3 581.315 1411.51 575.318C1400.88 569.321 1392.49 560.84 1386.32 549.875C1380.32 538.738 1377.33 525.888 1377.33 511.325C1377.33 496.933 1380.41 484.254 1386.58 473.289C1392.92 462.152 1401.48 453.671 1412.28 447.846C1423.07 441.849 1435.15 438.851 1448.51 438.851C1461.88 438.851 1473.96 441.849 1484.75 447.846C1495.55 453.671 1504.03 462.067 1510.19 473.032C1516.53 483.997 1519.7 496.762 1519.7 511.325C1519.7 525.888 1516.45 538.738 1509.94 549.875C1503.6 560.84 1494.95 569.321 1483.98 575.318C1473.02 581.315 1460.85 584.313 1447.49 584.313ZM1447.49 563.753C1455.88 563.753 1463.76 561.783 1471.13 557.842C1478.5 553.901 1484.41 547.99 1488.86 540.109C1493.49 532.228 1495.8 522.633 1495.8 511.325C1495.8 500.017 1493.58 490.422 1489.12 482.541C1484.67 474.66 1478.84 468.834 1471.64 465.065C1464.45 461.124 1456.65 459.154 1448.26 459.154C1439.69 459.154 1431.81 461.124 1424.61 465.065C1417.59 468.834 1411.93 474.66 1407.65 482.541C1403.37 490.422 1401.23 500.017 1401.23 511.325C1401.23 522.804 1403.28 532.485 1407.39 540.366C1411.68 548.247 1417.33 554.158 1424.36 558.099C1431.38 561.868 1439.09 563.753 1447.49 563.753ZM1631.05 418.291C1626.59 418.291 1622.82 416.749 1619.74 413.665C1616.66 410.581 1615.11 406.812 1615.11 402.357C1615.11 397.902 1616.66 394.133 1619.74 391.049C1622.82 387.965 1626.59 386.423 1631.05 386.423C1635.33 386.423 1638.93 387.965 1641.84 391.049C1644.93 394.133 1646.47 397.902 1646.47 402.357C1646.47 406.812 1644.93 410.581 1641.84 413.665C1638.93 416.749 1635.33 418.291 1631.05 418.291ZM1642.36 441.164V582H1618.97V441.164H1642.36ZM1673.48 511.325C1673.48 496.762 1676.39 484.083 1682.22 473.289C1688.04 462.324 1696.09 453.843 1706.37 447.846C1716.83 441.849 1728.73 438.851 1742.1 438.851C1759.4 438.851 1773.62 443.049 1784.76 451.444C1796.07 459.839 1803.52 471.49 1807.12 486.396H1781.93C1779.53 477.829 1774.82 471.062 1767.8 466.093C1760.94 461.124 1752.38 458.64 1742.1 458.64C1728.73 458.64 1717.94 463.266 1709.71 472.518C1701.49 481.599 1697.38 494.534 1697.38 511.325C1697.38 528.287 1701.49 541.394 1709.71 550.646C1717.94 559.898 1728.73 564.524 1742.1 564.524C1752.38 564.524 1760.94 562.125 1767.8 557.328C1774.65 552.531 1779.36 545.677 1781.93 536.768H1807.12C1803.35 551.16 1795.81 562.725 1784.5 571.463C1773.19 580.03 1759.06 584.313 1742.1 584.313C1728.73 584.313 1716.83 581.315 1706.37 575.318C1696.09 569.321 1688.04 560.84 1682.22 549.875C1676.39 538.91 1673.48 526.06 1673.48 511.325ZM1959.63 441.164L1874.82 648.306H1850.66L1878.42 580.458L1821.62 441.164H1847.58L1891.78 555.272L1935.47 441.164H1959.63Z" fill="white"/>
<path d="M467.481 18.156H468.481V17.156H467.481V18.156ZM467.481 196V197H468.481V196H467.481ZM444.094 196H443.094V197H444.094V196ZM444.094 63.388H445.094L443.181 62.9809L444.094 63.388ZM384.984 196V197H385.633L385.898 196.407L384.984 196ZM368.536 196L367.623 196.408L367.888 197H368.536V196ZM309.169 63.131L310.082 62.7231L308.169 63.131H309.169ZM309.169 196V197H310.169V196H309.169ZM285.782 196H284.782V197H285.782V196ZM285.782 18.156V17.156H284.782V18.156H285.782ZM310.968 18.156L311.881 17.7475L311.616 17.156H310.968V18.156ZM376.76 165.16L375.847 165.569L376.76 167.608L377.673 165.569L376.76 165.16ZM442.552 18.156V17.156H441.904L441.639 17.7475L442.552 18.156ZM466.481 18.156V196H468.481V18.156H466.481ZM467.481 195H444.094V197H467.481V195ZM445.094 196V63.388H443.094V196H445.094ZM443.181 62.9809L384.071 195.593L385.898 196.407L445.008 63.7951L443.181 62.9809ZM384.984 195H368.536V197H384.984V195ZM369.449 195.592L310.082 62.7231L308.256 63.5389L367.623 196.408L369.449 195.592ZM308.169 63.131V196H310.169V63.131H308.169ZM309.169 195H285.782V197H309.169V195ZM286.782 196V18.156H284.782V196H286.782ZM285.782 19.156H310.968V17.156H285.782V19.156ZM310.055 18.5645L375.847 165.569L377.673 164.751L311.881 17.7475L310.055 18.5645ZM377.673 165.569L443.465 18.5645L441.639 17.7475L375.847 164.751L377.673 165.569ZM442.552 19.156H467.481V17.156H442.552V19.156ZM532.586 189.318L532.095 190.189L532.101 190.192L532.586 189.318ZM507.4 163.875L506.52 164.349L506.524 164.357L506.529 164.365L507.4 163.875ZM507.657 87.289L506.788 86.7943L506.786 86.7987L507.657 87.289ZM533.357 61.846L533.832 62.7261L533.843 62.7202L533.357 61.846ZM605.831 61.846L605.346 62.7202L605.357 62.726L605.831 61.846ZM631.274 87.032L630.403 87.5223L630.409 87.5325L631.274 87.032ZM631.017 163.875L630.154 163.37L630.152 163.374L631.017 163.875ZM605.061 189.318L605.54 190.195L605.54 190.195L605.061 189.318ZM609.943 154.109L609.081 153.603L609.077 153.61L609.073 153.617L609.943 154.109ZM592.724 79.065L592.244 79.9421L592.252 79.9465L592.26 79.9508L592.724 79.065ZM545.693 79.065L546.166 79.9462L546.174 79.9421L545.693 79.065ZM528.731 96.541L529.61 97.0185L529.61 97.0185L528.731 96.541ZM528.474 154.366L527.588 154.829L527.592 154.836L527.596 154.844L528.474 154.366ZM545.436 172.099L544.947 172.971L544.955 172.976L544.964 172.98L545.436 172.099ZM568.566 197.313C555.532 197.313 543.707 194.352 533.072 188.444L532.101 190.192C543.054 196.277 555.216 199.313 568.566 199.313V197.313ZM533.078 188.447C522.62 182.543 514.353 174.196 508.272 163.385L506.529 164.365C512.784 175.485 521.308 184.099 532.095 190.189L533.078 188.447ZM508.281 163.401C502.374 152.431 499.405 139.748 499.405 125.325H497.405C497.405 140.029 500.434 153.046 506.52 164.349L508.281 163.401ZM499.405 125.325C499.405 111.08 502.457 98.5745 508.529 87.7793L506.786 86.7987C500.522 97.9342 497.405 110.786 497.405 125.325H499.405ZM508.527 87.7837C514.778 76.8022 523.211 68.4583 533.832 62.726L532.883 60.966C521.916 66.8844 513.216 75.5024 506.788 86.7943L508.527 87.7837ZM533.843 62.7202C544.476 56.8127 556.386 53.851 569.594 53.851V51.851C556.075 51.851 543.826 54.8859 532.872 60.9718L533.843 62.7202ZM569.594 53.851C582.803 53.851 594.713 56.8127 605.346 62.7202L606.317 60.9718C595.362 54.8859 583.114 51.851 569.594 51.851V53.851ZM605.357 62.726C615.98 68.4591 624.325 76.7173 630.403 87.5223L632.146 86.5417C625.888 75.4161 617.271 66.8835 606.306 60.966L605.357 62.726ZM630.409 87.5325C636.648 98.3241 639.783 110.911 639.783 125.325H641.783C641.783 110.613 638.58 97.6705 632.14 86.5315L630.409 87.5325ZM639.783 125.325C639.783 139.734 636.564 152.406 630.154 163.37L631.881 164.38C638.492 153.071 641.783 140.042 641.783 125.325H639.783ZM630.152 163.374C623.903 174.183 615.383 182.533 604.581 188.441L605.54 190.195C616.669 184.11 625.454 175.497 631.883 164.376L630.152 163.374ZM604.581 188.441C593.773 194.351 581.775 197.313 568.566 197.313V199.313C582.086 199.313 594.418 196.278 605.54 190.195L604.581 188.441ZM568.566 178.753C577.126 178.753 585.169 176.742 592.682 172.724L591.739 170.96C584.517 174.823 576.798 176.753 568.566 176.753V178.753ZM592.682 172.724C600.231 168.686 606.274 162.633 610.814 154.601L609.073 153.617C604.703 161.348 598.925 167.116 591.739 170.96L592.682 172.724ZM610.806 154.615C615.541 146.548 617.882 136.769 617.882 125.325H615.882C615.882 136.497 613.598 145.907 609.081 153.603L610.806 154.615ZM617.882 125.325C617.882 113.887 615.629 104.113 611.071 96.0489L609.33 97.0331C613.681 104.731 615.882 114.147 615.882 125.325H617.882ZM611.071 96.0489C606.533 88.0198 600.574 82.0479 593.189 78.1792L592.26 79.9508C599.267 83.6208 604.959 89.2995 609.33 97.0331L611.071 96.0489ZM593.205 78.1879C585.858 74.1647 577.897 72.154 569.337 72.154V74.154C577.569 74.154 585.199 76.084 592.244 79.9421L593.205 78.1879ZM569.337 72.154C560.611 72.154 552.563 74.163 545.213 78.1879L546.174 79.9421C553.216 76.0857 560.931 74.154 569.337 74.154V72.154ZM545.221 78.1838C538.003 82.0565 532.217 88.0331 527.853 96.0635L529.61 97.0185C533.812 89.2862 539.334 83.6121 546.166 79.9462L545.221 78.1838ZM527.853 96.0635C523.472 104.125 521.306 113.893 521.306 125.325H523.306C523.306 114.141 525.425 104.72 529.61 97.0185L527.853 96.0635ZM521.306 125.325C521.306 136.92 523.383 146.769 527.588 154.829L529.361 153.903C525.342 146.2 523.306 136.689 523.306 125.325H521.306ZM527.596 154.844C531.959 162.871 537.74 168.928 544.947 172.971L545.926 171.227C539.084 167.389 533.557 161.624 529.353 153.888L527.596 154.844ZM544.964 172.98C552.142 176.832 560.015 178.753 568.566 178.753V176.753C560.327 176.753 552.781 174.905 545.909 171.218L544.964 172.98ZM723.961 174.412L723.023 174.758L723.964 177.311L724.9 174.756L723.961 174.412ZM767.651 55.164V54.164H766.953L766.712 54.82L767.651 55.164ZM792.58 55.164L793.511 55.5292L794.047 54.164H792.58V55.164ZM737.325 196V197H738.007L738.256 196.365L737.325 196ZM710.083 196L709.152 196.365L709.401 197H710.083V196ZM654.828 55.164V54.164H653.362L653.897 55.5292L654.828 55.164ZM680.014 55.164L680.952 54.8182L680.711 54.164H680.014V55.164ZM724.9 174.756L768.59 55.508L766.712 54.82L723.022 174.068L724.9 174.756ZM767.651 56.164H792.58V54.164H767.651V56.164ZM791.649 54.7988L736.394 195.635L738.256 196.365L793.511 55.5292L791.649 54.7988ZM737.325 195H710.083V197H737.325V195ZM711.014 195.635L655.759 54.7988L653.897 55.5292L709.152 196.365L711.014 195.635ZM654.828 56.164H680.014V54.164H654.828V56.164ZM679.076 55.5098L723.023 174.758L724.899 174.066L680.952 54.8182L679.076 55.5098ZM816.365 27.665L817.072 26.9579L817.072 26.9579L816.365 27.665ZM816.365 5.04899L817.072 5.7561L817.072 5.7561L816.365 5.04899ZM838.467 5.04899L837.74 5.73562L837.749 5.746L837.76 5.7561L838.467 5.04899ZM838.467 27.665L837.76 26.9579L837.749 26.968L837.74 26.9784L838.467 27.665ZM838.981 55.164H839.981V54.164H838.981V55.164ZM838.981 196V197H839.981V196H838.981ZM815.594 196H814.594V197H815.594V196ZM815.594 55.164V54.164H814.594V55.164H815.594ZM827.673 31.291C823.477 31.291 819.964 29.8499 817.072 26.9579L815.658 28.3721C818.934 31.6481 822.959 33.291 827.673 33.291V31.291ZM817.072 26.9579C814.18 24.0659 812.739 20.5528 812.739 16.357H810.739C810.739 21.0705 812.382 25.0961 815.658 28.3721L817.072 26.9579ZM812.739 16.357C812.739 12.1612 814.18 8.64812 817.072 5.7561L815.658 4.34189C812.382 7.61787 810.739 11.6435 810.739 16.357H812.739ZM817.072 5.7561C819.964 2.86408 823.477 1.42299 827.673 1.42299V-0.57701C822.959 -0.57701 818.934 1.0659 815.658 4.34189L817.072 5.7561ZM827.673 1.42299C831.684 1.42299 835.018 2.85384 837.74 5.73562L839.194 4.36237C836.09 1.07615 832.228 -0.57701 827.673 -0.57701V1.42299ZM837.76 5.7561C840.652 8.64812 842.093 12.1612 842.093 16.357H844.093C844.093 11.6435 842.45 7.61787 839.174 4.34189L837.76 5.7561ZM842.093 16.357C842.093 20.5528 840.652 24.0659 837.76 26.9579L839.174 28.3721C842.45 25.0961 844.093 21.0705 844.093 16.357H842.093ZM837.74 26.9784C835.018 29.8601 831.684 31.291 827.673 31.291V33.291C832.228 33.291 836.09 31.6378 839.194 28.3516L837.74 26.9784ZM837.981 55.164V196H839.981V55.164H837.981ZM838.981 195H815.594V197H838.981V195ZM816.594 196V55.164H814.594V196H816.594ZM815.594 56.164H838.981V54.164H815.594V56.164ZM989.093 68.271L988.391 68.9839L988.397 68.9896L989.093 68.271ZM1005.03 196V197H1006.03V196H1005.03ZM981.897 196H980.897V197H981.897V196ZM971.36 84.205L970.628 84.8868L970.636 84.8951L971.36 84.205ZM913.021 84.462L912.298 83.7711L912.29 83.7797L913.021 84.462ZM902.227 196V197H903.227V196H902.227ZM878.84 196H877.84V197H878.84V196ZM878.84 55.164V54.164H877.84V55.164H878.84ZM902.227 55.164H903.227V54.164H902.227V55.164ZM902.227 75.21H901.227V78.6148L903.068 75.7508L902.227 75.21ZM920.988 58.505L920.548 57.6067L920.541 57.6106L920.988 58.505ZM947.459 53.594C964.372 53.594 977.984 58.7443 988.391 68.9838L989.794 67.5582C978.956 56.895 964.812 51.594 947.459 51.594V53.594ZM988.397 68.9896C998.769 79.0263 1004.03 93.6372 1004.03 112.989H1006.03C1006.03 93.2768 1000.66 78.0757 989.788 67.5524L988.397 68.9896ZM1004.03 112.989V196H1006.03V112.989H1004.03ZM1005.03 195H981.897V197H1005.03V195ZM982.897 196V116.33H980.897V196H982.897ZM982.897 116.33C982.897 102.123 979.344 91.1293 972.084 83.5149L970.636 84.8951C977.425 92.0154 980.897 102.439 980.897 116.33H982.897ZM972.091 83.5233C964.843 75.7449 954.963 71.897 942.576 71.897V73.897C954.517 73.897 963.827 77.5878 970.628 84.8867L972.091 83.5233ZM942.576 71.897C930.013 71.897 919.884 75.8323 912.298 83.7711L913.744 85.1529C920.892 77.6717 930.466 73.897 942.576 73.897V71.897ZM912.29 83.7797C904.862 91.7375 901.227 103.242 901.227 118.129H903.227C903.227 103.547 906.787 92.6065 913.752 85.1443L912.29 83.7797ZM901.227 118.129V196H903.227V118.129H901.227ZM902.227 195H878.84V197H902.227V195ZM879.84 196V55.164H877.84V196H879.84ZM878.84 56.164H902.227V54.164H878.84V56.164ZM901.227 55.164V75.21H903.227V55.164H901.227ZM903.068 75.7508C907.594 68.7106 913.709 63.2623 921.435 59.3994L920.541 57.6106C912.504 61.6291 906.112 67.3174 901.386 74.6692L903.068 75.7508ZM921.427 59.4032C929.334 55.5342 938.006 53.594 947.459 53.594V51.594C937.723 51.594 928.747 53.5945 920.548 57.6068L921.427 59.4032ZM1133.18 60.818L1132.67 61.6812L1132.68 61.6852L1133.18 60.818ZM1153.74 80.864L1152.86 81.3481L1154.74 80.864H1153.74ZM1153.74 55.164V54.164H1152.74V55.164H1153.74ZM1177.38 55.164H1178.38V54.164H1177.38V55.164ZM1169.16 233.265L1168.28 232.782L1168.28 232.788L1169.16 233.265ZM1145.52 256.909L1145.03 256.033L1145.03 256.036L1145.52 256.909ZM1063.79 252.283L1063.21 253.099L1063.21 253.099L1063.79 252.283ZM1041.94 216.56V215.56H1040.79L1040.96 216.706L1041.94 216.56ZM1065.07 216.56L1066.03 216.273L1065.82 215.56H1065.07V216.56ZM1081.01 237.12L1081.56 236.285L1081.55 236.281L1081.55 236.277L1081.01 237.12ZM1141.4 233.008L1140.7 232.293L1140.7 232.301L1141.4 233.008ZM1153.74 169.529H1154.74V165.711L1152.87 169.039L1153.74 169.529ZM1133.18 190.089L1132.66 189.233L1133.18 190.089ZM1067.13 189.061L1066.61 189.915L1066.62 189.918L1067.13 189.061ZM1043.23 163.104L1044.12 162.641L1044.12 162.641L1043.23 163.104ZM1043.23 87.289L1044.11 87.7639L1044.11 87.7582L1043.23 87.289ZM1067.13 61.846L1066.63 60.9822L1066.62 60.9859L1067.13 61.846ZM1129.84 79.579L1129.33 80.4383L1129.34 80.4454L1129.35 80.4522L1129.84 79.579ZM1082.04 79.322L1081.54 78.4538L1081.54 78.4538L1082.04 79.322ZM1064.82 97.312L1065.7 97.7895L1065.7 97.7895L1064.82 97.312ZM1064.82 153.338L1063.93 153.808L1063.94 153.816L1064.82 153.338ZM1082.04 171.585L1081.52 172.444L1081.53 172.449L1081.54 172.453L1082.04 171.585ZM1129.84 171.585L1130.33 172.453L1130.34 172.45L1129.84 171.585ZM1147.31 153.338L1148.19 153.816L1148.2 153.808L1147.31 153.338ZM1101.31 53.851C1113.33 53.851 1123.77 56.4726 1132.67 61.6812L1133.68 59.9548C1124.43 54.5407 1113.63 51.851 1101.31 51.851V53.851ZM1132.68 61.6852C1141.8 66.9204 1148.51 73.4792 1152.86 81.3481L1154.61 80.3799C1150.06 72.1435 1143.06 65.3383 1133.68 59.9507L1132.68 61.6852ZM1154.74 80.864V55.164H1152.74V80.864H1154.74ZM1153.74 56.164H1177.38V54.164H1153.74V56.164ZM1176.38 55.164V199.084H1178.38V55.164H1176.38ZM1176.38 199.084C1176.38 211.788 1173.67 223.011 1168.28 232.782L1170.04 233.748C1175.61 223.644 1178.38 212.08 1178.38 199.084H1176.38ZM1168.28 232.788C1162.89 242.725 1155.15 250.469 1145.03 256.033L1146 257.785C1156.44 252.041 1164.46 244.022 1170.04 233.742L1168.28 232.788ZM1145.03 256.036C1135.09 261.594 1123.44 264.39 1110.05 264.39V266.39C1123.73 266.39 1135.72 263.532 1146 257.782L1145.03 256.036ZM1110.05 264.39C1091.71 264.39 1076.5 260.061 1064.37 251.467L1063.21 253.099C1075.75 261.981 1091.39 266.39 1110.05 266.39V264.39ZM1064.37 251.467C1052.26 242.888 1045.12 231.224 1042.93 216.414L1040.96 216.706C1043.22 232.051 1050.65 244.202 1063.21 253.099L1064.37 251.467ZM1041.94 217.56H1065.07V215.56H1041.94V217.56ZM1064.12 216.847C1066.76 225.66 1072.23 232.704 1080.47 237.963L1081.55 236.277C1073.68 231.256 1068.53 224.593 1066.03 216.273L1064.12 216.847ZM1080.46 237.955C1088.7 243.391 1098.58 246.087 1110.05 246.087V244.087C1098.9 244.087 1089.42 241.471 1081.56 236.285L1080.46 237.955ZM1110.05 246.087C1123.13 246.087 1133.85 241.98 1142.11 233.715L1140.7 232.301C1132.86 240.141 1122.67 244.087 1110.05 244.087V246.087ZM1142.1 233.723C1150.57 225.435 1154.74 213.841 1154.74 199.084H1152.74C1152.74 213.454 1148.69 224.476 1140.7 232.293L1142.1 233.723ZM1154.74 199.084V169.529H1152.74V199.084H1154.74ZM1152.87 169.039C1148.34 177.094 1141.61 183.828 1132.66 189.233L1133.7 190.945C1142.91 185.384 1149.89 178.412 1154.61 170.019L1152.87 169.039ZM1132.66 189.233C1123.76 194.608 1113.32 197.313 1101.31 197.313V199.313C1113.63 199.313 1124.44 196.535 1133.7 190.945L1132.66 189.233ZM1101.31 197.313C1088.98 197.313 1077.76 194.274 1067.64 188.204L1066.62 189.918C1077.06 196.184 1088.63 199.313 1101.31 199.313V197.313ZM1067.65 188.207C1057.71 182.14 1049.86 173.627 1044.12 162.641L1042.34 163.567C1048.25 174.855 1056.34 183.646 1066.61 189.915L1067.65 188.207ZM1044.12 162.641C1038.37 151.665 1035.49 139.149 1035.49 125.068H1033.49C1033.49 139.429 1036.43 152.27 1042.34 163.567L1044.12 162.641ZM1035.49 125.068C1035.49 110.813 1038.38 98.3886 1044.11 87.7639L1042.35 86.8141C1036.43 97.7774 1033.49 110.539 1033.49 125.068H1035.49ZM1044.11 87.7582C1049.86 76.9453 1057.7 68.6037 1067.64 62.7061L1066.62 60.9859C1056.34 67.0816 1048.25 75.702 1042.35 86.8198L1044.11 87.7582ZM1067.63 62.7098C1077.75 56.8069 1088.97 53.851 1101.31 53.851V51.851C1088.64 51.851 1077.07 54.8917 1066.63 60.9822L1067.63 62.7098ZM1154.74 125.325C1154.74 114.566 1152.57 105.144 1148.19 97.0915L1146.44 98.0465C1150.63 105.756 1152.74 114.838 1152.74 125.325H1154.74ZM1148.19 97.0915C1143.83 89.0549 1137.87 82.9159 1130.33 78.7058L1129.35 80.4522C1136.54 84.4661 1142.24 90.3205 1146.44 98.0465L1148.19 97.0915ZM1130.35 78.7197C1122.99 74.3402 1114.85 72.154 1105.94 72.154V74.154C1114.5 74.154 1122.29 76.2511 1129.33 80.4383L1130.35 78.7197ZM1105.94 72.154C1097.04 72.154 1088.9 74.2507 1081.54 78.4538L1082.53 80.1902C1089.57 76.1693 1097.36 74.154 1105.94 74.154V72.154ZM1081.54 78.4538C1074.17 82.6655 1068.3 88.8039 1063.94 96.8345L1065.7 97.7895C1069.9 90.0575 1075.51 84.2025 1082.53 80.1902L1081.54 78.4538ZM1063.94 96.8345C1059.56 104.887 1057.39 114.309 1057.39 125.068H1059.39C1059.39 114.581 1061.51 105.499 1065.7 97.7895L1063.94 96.8345ZM1057.39 125.068C1057.39 135.996 1059.56 145.586 1063.93 153.808L1065.7 152.868C1061.51 144.985 1059.39 135.728 1059.39 125.068H1057.39ZM1063.94 153.816C1068.3 161.843 1074.16 168.062 1081.52 172.444L1082.55 170.726C1075.52 166.541 1069.9 160.596 1065.7 152.86L1063.94 153.816ZM1081.54 172.453C1088.9 176.656 1097.04 178.753 1105.94 178.753V176.753C1097.36 176.753 1089.57 174.738 1082.53 170.717L1081.54 172.453ZM1105.94 178.753C1114.84 178.753 1122.98 176.656 1130.33 172.453L1129.34 170.717C1122.31 174.738 1114.51 176.753 1105.94 176.753V178.753ZM1130.34 172.45C1137.88 168.069 1143.83 161.849 1148.19 153.816L1146.44 152.86C1142.24 160.59 1136.54 166.534 1129.34 170.72L1130.34 172.45ZM1148.2 153.808C1152.57 145.588 1154.74 136.084 1154.74 125.325H1152.74C1152.74 135.811 1150.63 144.982 1146.43 152.868L1148.2 153.808ZM1313.95 74.439V73.439H1312.95V74.439H1313.95ZM1318.32 172.099L1317.61 172.806L1317.62 172.817L1317.63 172.827L1318.32 172.099ZM1350.7 176.211H1351.7V175.211H1350.7V176.211ZM1350.7 196V197H1351.7V196H1350.7ZM1300.33 187.005L1299.65 187.741L1300.33 187.005ZM1290.56 74.439H1291.56V73.439H1290.56V74.439ZM1272.31 74.439H1271.31V75.439H1272.31V74.439ZM1272.31 55.164V54.164H1271.31V55.164H1272.31ZM1290.56 55.164V56.164H1291.56V55.164H1290.56ZM1290.56 19.698V18.698H1289.56V19.698H1290.56ZM1313.95 19.698H1314.95V18.698H1313.95V19.698ZM1313.95 55.164H1312.95V56.164H1313.95V55.164ZM1350.7 55.164H1351.7V54.164H1350.7V55.164ZM1350.7 74.439V75.439H1351.7V74.439H1350.7ZM1312.95 74.439V157.45H1314.95V74.439H1312.95ZM1312.95 157.45C1312.95 164.402 1314.42 169.614 1317.61 172.806L1319.02 171.392C1316.39 168.759 1314.95 164.205 1314.95 157.45H1312.95ZM1317.63 172.827C1320.83 175.838 1326.21 177.211 1333.48 177.211V175.211C1326.36 175.211 1321.63 173.843 1319 171.371L1317.63 172.827ZM1333.48 177.211H1350.7V175.211H1333.48V177.211ZM1349.7 176.211V196H1351.7V176.211H1349.7ZM1350.7 195H1329.63V197H1350.7V195ZM1329.63 195C1316.74 195 1307.26 192.031 1301.01 186.269L1299.65 187.741C1306.42 193.972 1316.47 197 1329.63 197V195ZM1301.01 186.269C1294.79 180.545 1291.56 171.029 1291.56 157.45H1289.56C1289.56 171.285 1292.84 181.472 1299.65 187.741L1301.01 186.269ZM1291.56 157.45V74.439H1289.56V157.45H1291.56ZM1290.56 73.439H1272.31V75.439H1290.56V73.439ZM1273.31 74.439V55.164H1271.31V74.439H1273.31ZM1272.31 56.164H1290.56V54.164H1272.31V56.164ZM1291.56 55.164V19.698H1289.56V55.164H1291.56ZM1290.56 20.698H1313.95V18.698H1290.56V20.698ZM1312.95 19.698V55.164H1314.95V19.698H1312.95ZM1313.95 56.164H1350.7V54.164H1313.95V56.164ZM1349.7 55.164V74.439H1351.7V55.164H1349.7ZM1350.7 73.439H1313.95V75.439H1350.7V73.439ZM1477.72 59.533L1477.25 60.4129L1477.26 60.4166L1477.26 60.4202L1477.72 59.533ZM1497.77 79.836L1496.89 80.3031L1496.89 80.3096L1496.89 80.316L1497.77 79.836ZM1505.22 196V197H1506.22V196H1505.22ZM1482.09 196H1481.09V197H1482.09V196ZM1471.56 84.205L1470.82 84.8868L1470.83 84.8951L1471.56 84.205ZM1413.22 84.462L1412.49 83.7711L1412.49 83.7797L1413.22 84.462ZM1402.42 196V197H1403.42V196H1402.42ZM1379.04 196H1378.04V197H1379.04V196ZM1379.04 5.82V4.82H1378.04V5.82H1379.04ZM1402.42 5.82H1403.42V4.82H1402.42V5.82ZM1402.42 75.21H1401.42V78.6148L1403.26 75.7508L1402.42 75.21ZM1421.44 58.505L1421.01 57.6031L1421 57.6068L1421.44 58.505ZM1448.94 53.594C1459.41 53.594 1468.84 55.8728 1477.25 60.4129L1478.2 58.6531C1469.47 53.9412 1459.71 51.594 1448.94 51.594V53.594ZM1477.26 60.4202C1485.64 64.775 1492.18 71.3901 1496.89 80.3031L1498.65 79.3689C1493.77 70.1205 1486.94 63.2004 1478.19 58.6458L1477.26 60.4202ZM1496.89 80.316C1501.76 89.2163 1504.22 100.093 1504.22 112.989H1506.22C1506.22 99.8424 1503.71 88.6171 1498.65 79.356L1496.89 80.316ZM1504.22 112.989V196H1506.22V112.989H1504.22ZM1505.22 195H1482.09V197H1505.22V195ZM1483.09 196V116.33H1481.09V196H1483.09ZM1483.09 116.33C1483.09 102.123 1479.54 91.1293 1472.28 83.5149L1470.83 84.8951C1477.62 92.0154 1481.09 102.439 1481.09 116.33H1483.09ZM1472.29 83.5233C1465.04 75.7449 1455.16 71.897 1442.77 71.897V73.897C1454.71 73.897 1464.02 77.5878 1470.82 84.8867L1472.29 83.5233ZM1442.77 71.897C1430.21 71.897 1420.08 75.8323 1412.49 83.7711L1413.94 85.1529C1421.09 77.6717 1430.66 73.897 1442.77 73.897V71.897ZM1412.49 83.7797C1405.06 91.7375 1401.42 103.242 1401.42 118.129H1403.42C1403.42 103.547 1406.98 92.6065 1413.95 85.1443L1412.49 83.7797ZM1401.42 118.129V196H1403.42V118.129H1401.42ZM1402.42 195H1379.04V197H1402.42V195ZM1380.04 196V5.82H1378.04V196H1380.04ZM1379.04 6.82H1402.42V4.82H1379.04V6.82ZM1401.42 5.82V75.21H1403.42V5.82H1401.42ZM1403.26 75.7508C1407.79 68.7159 1413.98 63.2676 1421.88 59.4032L1421 57.6068C1412.79 61.6237 1406.31 67.3121 1401.58 74.6692L1403.26 75.7508ZM1421.87 59.4068C1429.95 55.5375 1438.96 53.594 1448.94 53.594V51.594C1438.7 51.594 1429.38 53.5911 1421.01 57.6032L1421.87 59.4068ZM1671.15 134.32V135.32H1672.06L1672.15 134.423L1671.15 134.32ZM1558.59 134.32V133.32H1557.53L1557.59 134.382L1558.59 134.32ZM1572.72 166.959L1572.05 167.695L1572.05 167.702L1572.06 167.709L1572.72 166.959ZM1629.52 171.585L1630.09 172.407L1630.09 172.404L1629.52 171.585ZM1643.91 152.567V151.567H1643.2L1642.97 152.238L1643.91 152.567ZM1669.1 152.567L1670.06 152.835L1670.42 151.567H1669.1V152.567ZM1646.48 185.72L1647.08 186.523L1647.09 186.517L1646.48 185.72ZM1568.35 189.318L1567.86 190.185L1567.86 190.189L1568.35 189.318ZM1543.68 163.875L1542.8 164.349L1542.81 164.355L1543.68 163.875ZM1543.43 87.032L1544.31 87.5011L1544.31 87.5011L1543.43 87.032ZM1567.84 61.846L1568.33 62.7195L1568.33 62.7168L1567.84 61.846ZM1639.8 61.589L1639.31 62.459L1639.31 62.459L1639.8 61.589ZM1663.44 85.747L1662.56 86.2176L1662.57 86.2264L1662.57 86.2351L1663.44 85.747ZM1647.77 115.302V116.302H1648.77V115.302H1647.77ZM1641.86 92.429L1641 92.9468L1641.01 92.9569L1641.86 92.429ZM1625.67 77.78L1625.21 78.6698L1625.22 78.6768L1625.24 78.6833L1625.67 77.78ZM1572.98 83.948L1572.31 83.2039L1572.3 83.2108L1572.98 83.948ZM1558.85 115.302L1557.85 115.213L1557.75 116.302H1558.85V115.302ZM1670.93 120.185C1670.93 124.601 1670.67 129.279 1670.16 134.217L1672.15 134.423C1672.67 129.424 1672.93 124.678 1672.93 120.185H1670.93ZM1671.15 133.32H1558.59V135.32H1671.15V133.32ZM1557.59 134.382C1558.46 148.464 1563.25 159.606 1572.05 167.695L1573.4 166.223C1565.06 158.55 1560.43 147.932 1559.59 134.258L1557.59 134.382ZM1572.06 167.709C1580.99 175.59 1591.77 179.524 1604.33 179.524V177.524C1592.23 177.524 1581.93 173.748 1573.39 166.209L1572.06 167.709ZM1604.33 179.524C1614.6 179.524 1623.2 177.174 1630.09 172.407L1628.95 170.763C1622.47 175.248 1614.29 177.524 1604.33 177.524V179.524ZM1630.09 172.404C1637.12 167.487 1642.05 160.976 1644.86 152.896L1642.97 152.238C1640.3 159.921 1635.63 166.089 1628.95 170.766L1630.09 172.404ZM1643.91 153.567H1669.1V151.567H1643.91V153.567ZM1668.14 152.299C1664.43 165.621 1657.01 176.487 1645.88 184.923L1647.09 186.517C1658.57 177.82 1666.23 166.584 1670.06 152.835L1668.14 152.299ZM1645.89 184.917C1634.78 193.161 1620.95 197.313 1604.33 197.313V199.313C1621.3 199.313 1635.57 195.069 1647.08 186.523L1645.89 184.917ZM1604.33 197.313C1591.13 197.313 1579.3 194.351 1568.85 188.447L1567.86 190.189C1578.65 196.278 1590.82 199.313 1604.33 199.313V197.313ZM1568.85 188.451C1558.57 182.549 1550.47 174.205 1544.56 163.395L1542.81 164.355C1548.89 175.476 1557.24 184.093 1567.86 190.185L1568.85 188.451ZM1544.56 163.401C1538.66 152.431 1535.69 139.748 1535.69 125.325H1533.69C1533.69 140.029 1536.72 153.046 1542.8 164.349L1544.56 163.401ZM1535.69 125.325C1535.69 110.897 1538.57 98.2989 1544.31 87.5011L1542.54 86.5628C1536.63 97.6957 1533.69 110.626 1533.69 125.325H1535.69ZM1544.31 87.5011C1550.05 76.6992 1558.05 68.4473 1568.33 62.7195L1567.35 60.9725C1556.73 66.8953 1548.45 75.4341 1542.54 86.5628L1544.31 87.5011ZM1568.33 62.7168C1578.79 56.8149 1590.78 53.851 1604.33 53.851V51.851C1590.48 51.851 1578.14 54.8838 1567.35 60.9752L1568.33 62.7168ZM1604.33 53.851C1617.55 53.851 1629.2 56.7296 1639.31 62.459L1640.29 60.719C1629.84 54.7978 1617.85 51.851 1604.33 51.851V53.851ZM1639.31 62.459C1649.43 68.1922 1657.17 76.1075 1662.56 86.2176L1664.33 85.2764C1658.75 74.8265 1650.74 66.6364 1640.29 60.719L1639.31 62.459ZM1662.57 86.2351C1668.13 96.1788 1670.93 107.487 1670.93 120.185H1672.93C1672.93 107.183 1670.06 95.5325 1664.32 85.2588L1662.57 86.2351ZM1648.77 115.302C1648.77 106.243 1646.76 98.4272 1642.71 91.9011L1641.01 92.9569C1644.83 99.1094 1646.77 106.543 1646.77 115.302H1648.77ZM1642.71 91.9112C1638.67 85.2336 1633.13 80.2163 1626.09 76.8767L1625.24 78.6833C1631.91 81.8543 1637.16 86.603 1641 92.9468L1642.71 91.9112ZM1626.12 76.8902C1619.29 73.3844 1611.67 71.64 1603.31 71.64V73.64C1611.39 73.64 1618.68 75.3223 1625.21 78.6698L1626.12 76.8902ZM1603.31 71.64C1591.25 71.64 1580.9 75.4921 1572.31 83.2039L1573.65 84.692C1581.85 77.3266 1591.72 73.64 1603.31 73.64V71.64ZM1572.3 83.2108C1563.86 90.9508 1559.07 101.653 1557.85 115.213L1559.84 115.391C1561.02 102.223 1565.65 92.0225 1573.66 84.6851L1572.3 83.2108ZM1558.85 116.302H1647.77V114.302H1558.85V116.302ZM30.3703 577.631L29.9502 578.538L29.9603 578.543L29.9704 578.548L30.3703 577.631ZM8.52534 560.155L7.70781 560.731L7.71417 560.74L8.52534 560.155ZM0.301345 534.198V533.198H-0.716353L-0.698501 534.216L0.301345 534.198ZM25.2303 534.198L26.2252 534.096L26.1335 533.198H25.2303V534.198ZM35.5103 555.529L34.8136 556.246L34.8239 556.256L34.8346 556.266L35.5103 555.529ZM88.4523 555.786L89.1065 556.542L89.108 556.541L88.4523 555.786ZM92.5643 517.493L91.8136 518.154L91.8136 518.154L92.5643 517.493ZM78.4294 507.727L78.0628 508.657L78.0628 508.657L78.4294 507.727ZM55.5563 500.531L55.8151 499.565L55.8088 499.563L55.5563 500.531ZM27.0293 491.279L26.6273 492.195L26.6354 492.198L27.0293 491.279ZM8.78234 476.887L7.97988 477.484L7.98851 477.495L7.99746 477.507L8.78234 476.887ZM8.78234 424.202L9.6173 424.752L9.6173 424.752L8.78234 424.202ZM29.5993 406.726L29.1868 405.815L29.1803 405.818L29.5993 406.726ZM101.816 413.151L101.196 413.936L101.202 413.94L101.816 413.151ZM120.063 446.561V447.561H121.167L121.059 446.463L120.063 446.561ZM94.3633 446.561L93.3711 446.685L93.4806 447.561H94.3633V446.561ZM83.5693 428.571L82.9271 429.338L82.9333 429.343L82.9395 429.348L83.5693 428.571ZM34.4823 428.314L35.1097 429.093L35.1161 429.088L35.1225 429.082L34.4823 428.314ZM30.6273 465.322L29.8748 465.98L29.8824 465.989L29.8902 465.998L30.6273 465.322ZM44.2483 474.831L43.8616 475.753L43.8793 475.761L43.8972 475.767L44.2483 474.831ZM67.1213 482.027L66.8511 482.99L66.8559 482.991L67.1213 482.027ZM95.6484 491.793L95.2362 492.704L95.2453 492.708L95.2544 492.712L95.6484 491.793ZM114.152 506.442L113.36 507.052L113.367 507.062L114.152 506.442ZM114.923 557.842L115.781 558.356L115.781 558.356L114.923 557.842ZM94.3633 576.603L93.8962 575.719L94.3633 576.603ZM62.2383 582.799C50.5335 582.799 40.05 580.764 30.7703 576.714L29.9704 578.548C39.5374 582.722 50.2992 584.799 62.2383 584.799V582.799ZM30.7905 576.724C21.6749 572.503 14.5355 566.782 9.33652 559.57L7.71417 560.74C13.1378 568.263 20.5618 574.192 29.9502 578.538L30.7905 576.724ZM9.34283 559.579C4.15381 552.214 1.46923 543.759 1.30119 534.18L-0.698501 534.216C-0.523875 544.169 2.27421 553.019 7.70786 560.731L9.34283 559.579ZM0.301345 535.198H25.2303V533.198H0.301345V535.198ZM24.2355 534.3C25.1158 542.926 28.6465 550.255 34.8136 556.246L36.2071 554.812C30.3808 549.152 27.0582 542.26 26.2252 534.096L24.2355 534.3ZM34.8346 556.266C41.2487 562.146 50.436 565.01 62.2383 565.01V563.01C50.7393 563.01 42.108 560.22 36.1861 554.792L34.8346 556.266ZM62.2383 565.01C73.5353 565.01 82.5329 562.228 89.1065 556.542L87.7982 555.03C81.6931 560.31 73.2147 563.01 62.2383 563.01V565.01ZM89.108 556.541C95.8407 550.694 99.2183 543.221 99.2183 534.198H97.2183C97.2183 542.651 94.0853 549.57 87.7967 555.031L89.108 556.541ZM99.2183 534.198C99.2183 527.153 97.276 521.333 93.3151 516.832L91.8136 518.154C95.3913 522.219 97.2183 527.537 97.2183 534.198H99.2183ZM93.3151 516.832C89.4341 512.422 84.5877 509.078 78.7959 506.797L78.0628 508.657C83.579 510.83 88.1559 513.997 91.8136 518.154L93.3151 516.832ZM78.7959 506.797C73.0917 504.549 65.4265 502.14 55.8151 499.565L55.2976 501.497C64.8755 504.062 72.459 506.45 78.0628 508.657L78.7959 506.797ZM55.8088 499.563C44.0115 496.486 34.5554 493.416 27.4233 490.36L26.6354 492.198C33.8953 495.31 43.4572 498.408 55.3039 501.499L55.8088 499.563ZM27.4313 490.363C20.5686 487.35 14.6142 482.66 9.56723 476.267L7.99746 477.507C13.2305 484.135 19.4407 489.04 26.6274 492.195L27.4313 490.363ZM9.58481 476.29C4.78153 469.831 2.32934 461.153 2.32934 450.159H0.329345C0.329345 461.439 2.84583 470.579 7.97988 477.484L9.58481 476.29ZM2.32934 450.159C2.32934 440.572 4.76513 432.114 9.6173 424.752L7.94739 423.652C2.86223 431.367 0.329345 440.214 0.329345 450.159H2.32934ZM9.6173 424.752C14.4745 417.383 21.2631 411.675 30.0184 407.634L29.1803 405.818C20.1169 410.001 13.0275 415.944 7.94739 423.652L9.6173 424.752ZM30.0119 407.637C38.9429 403.593 49.1641 401.558 60.6964 401.558V399.558C48.9272 399.558 38.4172 401.635 29.1868 405.815L30.0119 407.637ZM60.6964 401.558C77.3173 401.558 90.7892 405.711 101.196 413.936L102.436 412.366C91.5982 403.801 77.6567 399.558 60.6964 399.558V401.558ZM101.202 413.94C111.775 422.164 117.724 433.048 119.068 446.659L121.059 446.463C119.661 432.318 113.446 420.929 102.43 412.362L101.202 413.94ZM120.063 445.561H94.3633V447.561H120.063V445.561ZM95.3556 446.437C94.4612 439.282 90.7001 433.065 84.1991 427.794L82.9395 429.348C89.1173 434.357 92.5521 440.134 93.3711 446.685L95.3556 446.437ZM84.2116 427.804C77.6489 422.306 69.006 419.604 58.3833 419.604V421.604C68.6634 421.604 76.8111 424.213 82.9271 429.338L84.2116 427.804ZM58.3833 419.604C48.4359 419.604 40.2265 422.226 33.8422 427.546L35.1225 429.082C41.0742 424.122 48.7988 421.604 58.3833 421.604V419.604ZM33.855 427.535C27.4151 432.723 24.2303 440.055 24.2303 449.388H26.2303C26.2303 440.56 29.2136 433.842 35.1097 429.093L33.855 427.535ZM24.2303 449.388C24.2303 456.092 26.0878 461.653 29.8748 465.98L31.3799 464.663C27.9709 460.767 26.2303 455.705 26.2303 449.388H24.2303ZM29.8902 465.998C33.7604 470.22 38.4215 473.472 43.8616 475.753L44.6351 473.909C39.4525 471.735 35.033 468.648 31.3645 464.646L29.8902 465.998ZM43.8972 475.767C49.4188 477.838 57.0744 480.245 66.8511 482.99L67.3916 481.064C57.6363 478.326 50.0432 475.936 44.5995 473.895L43.8972 475.767ZM66.8559 482.991C78.6519 486.239 88.106 489.479 95.2362 492.704L96.0605 490.882C88.7987 487.597 79.2348 484.325 67.3868 481.063L66.8559 482.991ZM95.2544 492.712C102.281 495.724 108.316 500.495 113.36 507.052L114.945 505.832C109.709 499.025 103.407 494.03 96.0423 490.874L95.2544 492.712ZM113.367 507.062C118.325 513.341 120.862 522.006 120.862 533.17H122.862C122.862 521.718 120.26 512.564 114.937 505.822L113.367 507.062ZM120.862 533.17C120.862 541.721 118.601 549.768 114.066 557.328L115.781 558.356C120.497 550.496 122.862 542.095 122.862 533.17H120.862ZM114.066 557.328C109.547 564.86 102.839 570.994 93.8962 575.719L94.8305 577.487C104.049 572.617 111.048 566.244 115.781 558.356L114.066 557.328ZM93.8962 575.719C84.9858 580.426 74.4441 582.799 62.2383 582.799V584.799C74.7046 584.799 85.5796 582.374 94.8305 577.487L93.8962 575.719ZM225.566 413.665L226.273 412.958L226.273 412.958L225.566 413.665ZM225.566 391.049L226.273 391.756L226.273 391.756L225.566 391.049ZM247.668 391.049L246.941 391.736L246.951 391.746L246.961 391.756L247.668 391.049ZM247.668 413.665L246.961 412.958L246.951 412.968L246.941 412.978L247.668 413.665ZM248.182 441.164H249.182V440.164H248.182V441.164ZM248.182 582V583H249.182V582H248.182ZM224.795 582H223.795V583H224.795V582ZM224.795 441.164V440.164H223.795V441.164H224.795ZM236.874 417.291C232.678 417.291 229.165 415.85 226.273 412.958L224.859 414.372C228.135 417.648 232.16 419.291 236.874 419.291V417.291ZM226.273 412.958C223.381 410.066 221.94 406.553 221.94 402.357H219.94C219.94 407.071 221.583 411.096 224.859 414.372L226.273 412.958ZM221.94 402.357C221.94 398.161 223.381 394.648 226.273 391.756L224.859 390.342C221.583 393.618 219.94 397.643 219.94 402.357H221.94ZM226.273 391.756C229.165 388.864 232.678 387.423 236.874 387.423V385.423C232.16 385.423 228.135 387.066 224.859 390.342L226.273 391.756ZM236.874 387.423C240.885 387.423 244.219 388.854 246.941 391.736L248.395 390.362C245.291 387.076 241.429 385.423 236.874 385.423V387.423ZM246.961 391.756C249.853 394.648 251.294 398.161 251.294 402.357H253.294C253.294 397.643 251.651 393.618 248.375 390.342L246.961 391.756ZM251.294 402.357C251.294 406.553 249.853 410.066 246.961 412.958L248.375 414.372C251.651 411.096 253.294 407.071 253.294 402.357H251.294ZM246.941 412.978C244.219 415.86 240.885 417.291 236.874 417.291V419.291C241.429 419.291 245.291 417.638 248.395 414.352L246.941 412.978ZM247.182 441.164V582H249.182V441.164H247.182ZM248.182 581H224.795V583H248.182V581ZM225.795 582V441.164H223.795V582H225.795ZM224.795 442.164H248.182V440.164H224.795V442.164ZM288.041 473.289L288.921 473.764L288.924 473.758L288.041 473.289ZM311.942 447.846L311.438 446.982L311.432 446.986L311.942 447.846ZM376.963 446.561L376.484 447.439L376.497 447.446L376.963 446.561ZM398.551 466.35L397.695 466.867L399.551 469.939V466.35H398.551ZM398.551 391.82V390.82H397.551V391.82H398.551ZM422.195 391.82H423.195V390.82H422.195V391.82ZM422.195 582V583H423.195V582H422.195ZM398.551 582H397.551V583H398.551V582ZM398.551 555.529H399.551L397.675 555.046L398.551 555.529ZM377.991 576.346L378.496 577.209L378.508 577.202L377.991 576.346ZM311.942 575.061L311.421 575.915L311.427 575.918L311.942 575.061ZM288.041 549.104L288.927 548.641L288.927 548.641L288.041 549.104ZM374.65 465.579L374.138 466.438L374.15 466.445L374.163 466.452L374.65 465.579ZM326.848 465.322L326.352 464.454L326.352 464.454L326.848 465.322ZM309.629 483.312L310.508 483.79L310.508 483.79L309.629 483.312ZM309.629 539.338L308.746 539.808L308.75 539.816L309.629 539.338ZM326.848 557.585L326.336 558.444L326.344 558.449L326.352 558.453L326.848 557.585ZM374.65 557.585L375.146 558.453L375.153 558.45L374.65 557.585ZM392.126 539.338L393.005 539.816L393.009 539.808L392.126 539.338ZM280.303 511.068C280.303 496.813 283.187 484.389 288.921 473.764L287.161 472.814C281.244 483.777 278.303 496.539 278.303 511.068H280.303ZM288.924 473.758C294.668 462.945 302.51 454.604 312.452 448.706L311.432 446.986C301.156 453.082 293.064 461.702 287.158 472.82L288.924 473.758ZM312.446 448.71C322.563 442.808 333.866 439.851 346.38 439.851V437.851C333.536 437.851 321.881 440.89 311.438 446.982L312.446 448.71ZM346.38 439.851C357.182 439.851 367.211 442.381 376.484 447.439L377.442 445.683C367.868 440.461 357.509 437.851 346.38 437.851V439.851ZM376.497 447.446C385.777 452.339 392.83 458.815 397.695 466.867L399.407 465.833C394.334 457.437 386.996 450.72 377.429 445.676L376.497 447.446ZM399.551 466.35V391.82H397.551V466.35H399.551ZM398.551 392.82H422.195V390.82H398.551V392.82ZM421.195 391.82V582H423.195V391.82H421.195ZM422.195 581H398.551V583H422.195V581ZM399.551 582V555.529H397.551V582H399.551ZM397.675 555.046C393.143 563.272 386.421 570.088 377.474 575.49L378.508 577.202C387.722 571.639 394.707 564.577 399.427 556.012L397.675 555.046ZM377.486 575.483C368.581 580.691 358.138 583.313 346.123 583.313V585.313C358.437 585.313 369.239 582.623 378.496 577.209L377.486 575.483ZM346.123 583.313C333.789 583.313 322.574 580.274 312.456 574.204L311.427 575.918C321.87 582.184 333.443 585.313 346.123 585.313V583.313ZM312.463 574.207C302.519 568.14 294.674 559.627 288.927 548.641L287.155 549.567C293.059 560.855 301.148 569.646 311.421 575.915L312.463 574.207ZM288.927 548.641C283.186 537.665 280.303 525.149 280.303 511.068H278.303C278.303 525.429 281.245 538.27 287.155 549.567L288.927 548.641ZM399.551 511.325C399.551 500.566 397.381 491.144 393.005 483.091L391.247 484.047C395.438 491.756 397.551 500.838 397.551 511.325H399.551ZM393.005 483.091C388.637 475.055 382.68 468.916 375.137 464.706L374.163 466.452C381.354 470.466 387.048 476.32 391.247 484.047L393.005 483.091ZM375.161 464.72C367.804 460.34 359.659 458.154 350.749 458.154V460.154C359.315 460.154 367.104 462.251 374.138 466.438L375.161 464.72ZM350.749 458.154C341.847 458.154 333.707 460.251 326.352 464.454L327.344 466.19C334.381 462.169 342.175 460.154 350.749 460.154V458.154ZM326.352 464.454C318.981 468.666 313.115 474.804 308.75 482.834L310.508 483.79C314.71 476.057 320.323 470.202 327.344 466.19L326.352 464.454ZM308.75 482.834C304.374 490.887 302.204 500.309 302.204 511.068H304.204C304.204 500.581 306.317 491.499 310.508 483.79L308.75 482.834ZM302.204 511.068C302.204 521.996 304.373 531.586 308.746 539.808L310.512 538.868C306.318 530.985 304.204 521.728 304.204 511.068H302.204ZM308.75 539.816C313.113 547.843 318.975 554.062 326.336 558.444L327.359 556.726C320.329 552.541 314.711 546.596 310.508 538.86L308.75 539.816ZM326.352 558.453C333.707 562.656 341.847 564.753 350.749 564.753V562.753C342.175 562.753 334.381 560.738 327.344 556.717L326.352 558.453ZM350.749 564.753C359.651 564.753 367.791 562.656 375.146 558.453L374.154 556.717C367.117 560.738 359.323 562.753 350.749 562.753V564.753ZM375.153 558.45C382.687 554.069 388.639 547.849 393.005 539.816L391.247 538.86C387.047 546.59 381.348 552.534 374.147 556.72L375.153 558.45ZM393.009 539.808C397.381 531.588 399.551 522.084 399.551 511.325H397.551C397.551 521.811 395.438 530.982 391.243 538.868L393.009 539.808ZM589.446 520.32V521.32H590.348L590.44 520.423L589.446 520.32ZM476.88 520.32V519.32H475.816L475.882 520.382L476.88 520.32ZM491.015 552.959L490.338 553.695L490.345 553.702L490.353 553.709L491.015 552.959ZM547.812 557.585L548.381 558.407L548.385 558.404L547.812 557.585ZM562.204 538.567V537.567H561.493L561.259 538.238L562.204 538.567ZM587.39 538.567L588.353 538.835L588.706 537.567H587.39V538.567ZM564.774 571.72L565.37 572.523L565.378 572.517L564.774 571.72ZM486.646 575.318L486.148 576.185L486.154 576.189L486.646 575.318ZM461.974 549.875L461.093 550.349L461.096 550.355L461.974 549.875ZM461.717 473.032L462.6 473.501L462.6 473.501L461.717 473.032ZM486.132 447.846L486.619 448.719L486.623 448.717L486.132 447.846ZM558.092 447.589L557.599 448.459L557.599 448.459L558.092 447.589ZM581.736 471.747L580.853 472.218L580.858 472.226L580.863 472.235L581.736 471.747ZM566.059 501.302V502.302H567.059V501.302H566.059ZM560.148 478.429L559.292 478.947L559.298 478.957L560.148 478.429ZM543.957 463.78L543.5 464.67L543.514 464.677L543.528 464.683L543.957 463.78ZM491.272 469.948L490.604 469.204L490.596 469.211L491.272 469.948ZM477.137 501.302L476.141 501.213L476.043 502.302H477.137V501.302ZM589.217 506.185C589.217 510.601 588.962 515.279 588.451 520.217L590.44 520.423C590.958 515.424 591.217 510.678 591.217 506.185H589.217ZM589.446 519.32H476.88V521.32H589.446V519.32ZM475.882 520.382C476.751 534.464 481.545 545.606 490.338 553.695L491.692 552.223C483.351 544.55 478.722 533.932 477.878 520.258L475.882 520.382ZM490.353 553.709C499.285 561.59 510.062 565.524 522.626 565.524V563.524C510.518 563.524 500.22 559.748 491.676 552.209L490.353 553.709ZM522.626 565.524C532.888 565.524 541.495 563.174 548.381 558.407L547.243 556.763C540.765 561.248 532.581 563.524 522.626 563.524V565.524ZM548.385 558.404C555.41 553.487 560.338 546.976 563.148 538.896L561.259 538.238C558.587 545.921 553.92 552.089 547.238 556.766L548.385 558.404ZM562.204 539.567H587.39V537.567H562.204V539.567ZM586.426 538.299C582.716 551.621 575.305 562.487 564.17 570.923L565.378 572.517C576.858 563.82 584.524 552.584 588.353 538.835L586.426 538.299ZM564.178 570.917C553.073 579.161 539.244 583.313 522.626 583.313V585.313C539.589 585.313 553.858 581.069 565.37 572.523L564.178 570.917ZM522.626 583.313C509.417 583.313 497.596 580.351 487.137 574.447L486.154 576.189C496.941 582.278 509.106 585.313 522.626 585.313V583.313ZM487.143 574.451C476.858 568.549 468.763 560.205 462.851 549.395L461.096 550.355C467.178 561.476 475.531 570.093 486.148 576.185L487.143 574.451ZM462.854 549.401C456.947 538.431 453.979 525.748 453.979 511.325H451.979C451.979 526.029 455.007 539.046 461.093 550.349L462.854 549.401ZM453.979 511.325C453.979 496.897 456.864 484.299 462.6 473.501L460.834 472.563C454.919 483.696 451.979 496.626 451.979 511.325H453.979ZM462.6 473.501C468.338 462.699 476.342 454.447 486.619 448.719L485.645 446.973C475.019 452.895 466.746 461.434 460.834 472.563L462.6 473.501ZM486.623 448.717C497.078 442.815 509.07 439.851 522.626 439.851V437.851C508.769 437.851 496.431 440.884 485.64 446.975L486.623 448.717ZM522.626 439.851C535.84 439.851 547.488 442.73 557.599 448.459L558.585 446.719C548.136 440.798 536.14 437.851 522.626 437.851V439.851ZM557.599 448.459C567.716 454.192 575.461 462.107 580.853 472.218L582.618 471.276C577.045 460.827 569.027 452.636 558.585 446.719L557.599 448.459ZM580.863 472.235C586.425 482.179 589.217 493.487 589.217 506.185H591.217C591.217 493.183 588.355 481.533 582.609 471.259L580.863 472.235ZM567.059 501.302C567.059 492.243 565.054 484.427 560.997 477.901L559.298 478.957C563.123 485.109 565.059 492.543 565.059 501.302H567.059ZM561.003 477.911C556.962 471.234 551.417 466.216 544.386 462.877L543.528 464.683C550.204 467.854 555.453 472.603 559.292 478.947L561.003 477.911ZM544.413 462.89C537.577 459.384 529.965 457.64 521.598 457.64V459.64C529.678 459.64 536.973 461.322 543.5 464.67L544.413 462.89ZM521.598 457.64C509.542 457.64 499.192 461.492 490.604 469.204L491.94 470.692C500.142 463.327 510.009 459.64 521.598 459.64V457.64ZM490.596 469.211C482.152 476.951 477.358 487.653 476.141 501.213L478.133 501.391C479.315 488.223 483.943 478.023 491.947 470.685L490.596 469.211ZM477.137 502.302H566.059V500.302H477.137V502.302ZM644.474 464.037H643.474L645.364 464.492L644.474 464.037ZM661.95 445.276L661.45 444.41L661.441 444.415L661.95 445.276ZM689.963 438.594H690.963V437.594H689.963V438.594ZM689.963 462.752V463.752H690.963V462.752H689.963ZM644.474 582V583H645.474V582H644.474ZM621.087 582H620.087V583H621.087V582ZM621.087 441.164V440.164H620.087V441.164H621.087ZM644.474 441.164H645.474V440.164H644.474V441.164ZM645.364 464.492C649.393 456.602 655.089 450.492 662.459 446.137L661.441 444.415C653.734 448.969 647.779 455.367 643.583 463.582L645.364 464.492ZM662.45 446.142C669.977 441.793 679.133 439.594 689.963 439.594V437.594C678.862 437.594 669.343 439.849 661.45 444.41L662.45 446.142ZM688.963 438.594V462.752H690.963V438.594H688.963ZM689.963 461.752H683.795V463.752H689.963V461.752ZM683.795 461.752C670.512 461.752 660.372 465.359 653.569 472.74C646.78 480.105 643.474 491.058 643.474 505.414H645.474C645.474 491.328 648.721 480.95 655.039 474.095C661.343 467.256 670.864 463.752 683.795 463.752V461.752ZM643.474 505.414V582H645.474V505.414H643.474ZM644.474 581H621.087V583H644.474V581ZM622.087 582V441.164H620.087V582H622.087ZM621.087 442.164H644.474V440.164H621.087V442.164ZM643.474 441.164V464.037H645.474V441.164H643.474ZM737.777 578.916L737.374 579.831L737.382 579.835L737.39 579.838L737.777 578.916ZM717.474 563.496L716.671 564.093L716.679 564.103L717.474 563.496ZM709.25 540.623V539.623H708.188L708.252 540.683L709.25 540.623ZM733.408 540.623L734.403 540.526L734.315 539.623H733.408V540.623ZM743.174 557.842L742.566 558.636L742.578 558.645L743.174 557.842ZM787.121 530.086L786.631 530.958L786.641 530.963L786.652 530.969L787.121 530.086ZM761.678 521.091L761.424 522.058L761.432 522.06L761.678 521.091ZM735.978 512.867L735.57 513.78L735.584 513.786L735.598 513.792L735.978 512.867ZM719.016 500.274L718.242 500.907L718.252 500.92L718.263 500.932L719.016 500.274ZM718.502 458.383L717.688 457.802L717.688 457.802L718.502 458.383ZM736.749 444.248L737.148 445.165L737.156 445.161L737.164 445.158L736.749 444.248ZM801.513 450.673L800.878 451.446L801.513 450.673ZM816.933 483.055V484.055H817.984L817.932 483.005L816.933 483.055ZM793.546 483.055L792.548 483.125L792.613 484.055H793.546V483.055ZM784.551 465.322L783.908 466.088L783.914 466.093L783.92 466.098L784.551 465.322ZM742.917 464.037L742.33 463.227L742.33 463.227L742.917 464.037ZM739.833 489.737L739.106 490.424L739.126 490.444L739.146 490.464L739.833 489.737ZM751.141 496.933L750.751 497.854L750.772 497.863L750.794 497.871L751.141 496.933ZM770.159 502.844L769.892 503.808L769.897 503.809L770.159 502.844ZM794.831 511.068L794.434 511.986L794.445 511.99L794.455 511.995L794.831 511.068ZM811.022 522.89L810.256 523.533L810.262 523.54L810.268 523.547L811.022 522.89ZM818.218 543.707H819.218V543.697L819.218 543.687L818.218 543.707ZM811.793 564.524L810.972 563.954L810.972 563.954L811.793 564.524ZM793.546 579.173L793.952 580.087L793.961 580.083L793.546 579.173ZM766.818 583.313C756.136 583.313 746.59 581.533 738.164 577.994L737.39 579.838C746.097 583.495 755.912 585.313 766.818 585.313V583.313ZM738.18 578.001C729.745 574.29 723.121 569.247 718.269 562.889L716.679 564.103C721.764 570.766 728.675 576.004 737.374 579.831L738.18 578.001ZM718.276 562.899C713.427 556.378 710.751 548.942 710.248 540.563L708.252 540.683C708.777 549.437 711.583 557.25 716.671 564.093L718.276 562.899ZM709.25 541.623H733.408V539.623H709.25V541.623ZM732.413 540.72C733.126 548.033 736.53 554.021 742.566 558.636L743.781 557.048C738.167 552.754 735.06 547.262 734.403 540.526L732.413 540.72ZM742.578 558.645C748.79 563.26 756.813 565.524 766.561 565.524V563.524C757.12 563.524 749.551 561.334 743.77 557.039L742.578 558.645ZM766.561 565.524C775.609 565.524 782.874 563.523 788.243 559.407L787.026 557.819C782.116 561.584 775.332 563.524 766.561 563.524V565.524ZM788.243 559.407C793.607 555.294 796.345 550.042 796.345 543.707H794.345C794.345 549.365 791.942 554.05 787.026 557.819L788.243 559.407ZM796.345 543.707C796.345 540.471 795.624 537.609 794.145 535.159C792.666 532.709 790.464 530.729 787.59 529.203L786.652 530.969C789.261 532.355 791.171 534.102 792.433 536.193C793.695 538.283 794.345 540.775 794.345 543.707H796.345ZM787.611 529.214C782.011 526.065 773.428 523.041 761.924 520.122L761.432 522.06C772.887 524.967 781.265 527.939 786.631 530.958L787.611 529.214ZM761.932 520.124C751.504 517.389 742.984 514.66 736.357 511.942L735.598 513.792C742.336 516.556 750.949 519.311 761.424 522.058L761.932 520.124ZM736.386 511.954C730.01 509.102 724.473 504.992 719.768 499.615L718.263 500.932C723.154 506.521 728.924 510.807 735.57 513.78L736.386 511.954ZM719.79 499.641C715.343 494.205 713.077 487.079 713.077 478.172H711.077C711.077 487.426 713.437 495.035 718.242 500.907L719.79 499.641ZM713.077 478.172C713.077 471.19 715.15 464.796 719.316 458.964L717.688 457.802C713.287 463.964 711.077 470.762 711.077 478.172H713.077ZM719.316 458.964C723.477 453.138 729.405 448.532 737.148 445.165L736.35 443.331C728.331 446.818 722.093 451.635 717.688 457.802L719.316 458.964ZM737.164 445.158C744.895 441.628 753.745 439.851 763.734 439.851V437.851C753.506 437.851 744.365 439.672 736.334 443.338L737.164 445.158ZM763.734 439.851C779.154 439.851 791.504 443.746 800.878 451.446L802.148 449.9C792.332 441.838 779.496 437.851 763.734 437.851V439.851ZM800.878 451.446C810.231 459.128 815.261 469.647 815.934 483.105L817.932 483.005C817.234 469.05 811.984 457.98 802.148 449.9L800.878 451.446ZM816.933 482.055H793.546V484.055H816.933V482.055ZM794.543 482.985C794.011 475.356 790.89 469.184 785.181 464.546L783.92 466.098C789.177 470.369 792.053 476.019 792.548 483.125L794.543 482.985ZM785.194 464.556C779.653 459.909 772.205 457.64 762.963 457.64V459.64C771.882 459.64 778.826 461.826 783.908 466.088L785.194 464.556ZM762.963 457.64C754.433 457.64 747.522 459.467 742.33 463.227L743.503 464.847C748.249 461.411 754.702 459.64 762.963 459.64V457.64ZM742.33 463.227C737.118 467.001 734.464 472.006 734.464 478.172H736.464C736.464 472.687 738.778 468.269 743.503 464.847L742.33 463.227ZM734.464 478.172C734.464 483.028 736.001 487.136 739.106 490.424L740.56 489.05C737.839 486.17 736.464 482.568 736.464 478.172H734.464ZM739.146 490.464C742.328 493.469 746.202 495.929 750.751 497.854L751.531 496.012C747.17 494.167 743.506 491.83 740.52 489.01L739.146 490.464ZM750.794 497.871C755.458 499.598 761.828 501.577 769.892 503.808L770.425 501.88C762.384 499.656 756.076 497.694 751.488 495.995L750.794 497.871ZM769.897 503.809C779.981 506.544 788.155 509.271 794.434 511.986L795.228 510.15C788.828 507.383 780.554 504.627 770.421 501.879L769.897 503.809ZM794.455 511.995C800.641 514.502 805.905 518.345 810.256 523.533L811.788 522.247C807.23 516.813 801.699 512.773 795.207 510.141L794.455 511.995ZM810.268 523.547C814.708 528.645 817.05 535.342 817.218 543.727L819.218 543.687C819.043 534.939 816.587 527.757 811.776 522.233L810.268 523.547ZM817.218 543.707C817.218 551.219 815.135 557.958 810.972 563.954L812.614 565.094C817.017 558.754 819.218 551.615 819.218 543.707H817.218ZM810.972 563.954C806.806 569.953 800.874 574.728 793.131 578.263L793.961 580.083C801.98 576.422 808.214 571.431 812.614 565.094L810.972 563.954ZM793.14 578.259C785.58 581.619 776.814 583.313 766.818 583.313V585.313C777.039 585.313 786.091 583.58 793.952 580.087L793.14 578.259ZM945.192 575.318L944.7 576.189L944.706 576.192L945.192 575.318ZM920.006 549.875L919.125 550.349L919.13 550.357L919.134 550.365L920.006 549.875ZM920.263 473.289L919.394 472.794L919.391 472.799L920.263 473.289ZM945.963 447.846L946.438 448.726L946.449 448.72L945.963 447.846ZM1018.44 447.846L1017.95 448.72L1017.96 448.726L1018.44 447.846ZM1043.88 473.032L1043.01 473.522L1043.01 473.532L1043.88 473.032ZM1043.62 549.875L1042.76 549.37L1042.76 549.374L1043.62 549.875ZM1017.67 575.318L1018.15 576.195L1018.15 576.195L1017.67 575.318ZM1022.55 540.109L1021.69 539.603L1021.68 539.61L1021.68 539.617L1022.55 540.109ZM1005.33 465.065L1004.85 465.942L1004.86 465.947L1004.87 465.951L1005.33 465.065ZM958.299 465.065L958.772 465.946L958.779 465.942L958.299 465.065ZM941.337 482.541L942.216 483.019L942.216 483.019L941.337 482.541ZM941.08 540.366L940.193 540.829L940.197 540.836L940.201 540.844L941.08 540.366ZM958.042 558.099L957.553 558.971L957.561 558.976L957.569 558.98L958.042 558.099ZM981.172 583.313C968.137 583.313 956.313 580.352 945.678 574.444L944.706 576.192C955.659 582.277 967.821 585.313 981.172 585.313V583.313ZM945.684 574.447C935.225 568.543 926.959 560.196 920.878 549.385L919.134 550.365C925.389 561.485 933.914 570.099 944.7 576.189L945.684 574.447ZM920.886 549.401C914.979 538.431 912.011 525.748 912.011 511.325H910.011C910.011 526.029 913.039 539.046 919.125 550.349L920.886 549.401ZM912.011 511.325C912.011 497.08 915.062 484.574 921.135 473.779L919.391 472.799C913.128 483.934 910.011 496.786 910.011 511.325H912.011ZM921.132 473.784C927.383 462.802 935.816 454.458 946.438 448.726L945.488 446.966C934.522 452.884 925.822 461.502 919.394 472.794L921.132 473.784ZM946.449 448.72C957.082 442.813 968.992 439.851 982.2 439.851V437.851C968.68 437.851 956.432 440.886 945.477 446.972L946.449 448.72ZM982.2 439.851C995.408 439.851 1007.32 442.813 1017.95 448.72L1018.92 446.972C1007.97 440.886 995.72 437.851 982.2 437.851V439.851ZM1017.96 448.726C1028.59 454.459 1036.93 462.717 1043.01 473.522L1044.75 472.542C1038.49 461.416 1029.88 452.884 1018.91 446.966L1017.96 448.726ZM1043.01 473.532C1049.25 484.324 1052.39 496.911 1052.39 511.325H1054.39C1054.39 496.613 1051.19 483.671 1044.75 472.531L1043.01 473.532ZM1052.39 511.325C1052.39 525.734 1049.17 538.406 1042.76 549.37L1044.49 550.38C1051.1 539.071 1054.39 526.042 1054.39 511.325H1052.39ZM1042.76 549.374C1036.51 560.183 1027.99 568.533 1017.19 574.441L1018.15 576.195C1029.27 570.11 1038.06 561.497 1044.49 550.376L1042.76 549.374ZM1017.19 574.441C1006.38 580.351 994.38 583.313 981.172 583.313V585.313C994.692 585.313 1007.02 582.278 1018.15 576.195L1017.19 574.441ZM981.172 564.753C989.731 564.753 997.774 562.742 1005.29 558.724L1004.34 556.96C997.123 560.823 989.404 562.753 981.172 562.753V564.753ZM1005.29 558.724C1012.84 554.686 1018.88 548.633 1023.42 540.601L1021.68 539.617C1017.31 547.348 1011.53 553.116 1004.34 556.96L1005.29 558.724ZM1023.41 540.615C1028.15 532.548 1030.49 522.769 1030.49 511.325H1028.49C1028.49 522.497 1026.2 531.907 1021.69 539.603L1023.41 540.615ZM1030.49 511.325C1030.49 499.887 1028.23 490.113 1023.68 482.049L1021.94 483.033C1026.29 490.731 1028.49 500.147 1028.49 511.325H1030.49ZM1023.68 482.049C1019.14 474.02 1013.18 468.048 1005.79 464.179L1004.87 465.951C1011.87 469.621 1017.56 475.3 1021.94 483.033L1023.68 482.049ZM1005.81 464.188C998.463 460.165 990.502 458.154 981.943 458.154V460.154C990.174 460.154 997.804 462.084 1004.85 465.942L1005.81 464.188ZM981.943 458.154C973.216 458.154 965.169 460.163 957.819 464.188L958.779 465.942C965.821 462.086 973.536 460.154 981.943 460.154V458.154ZM957.826 464.184C950.609 468.057 944.823 474.033 940.458 482.063L942.216 483.019C946.418 475.286 951.94 469.612 958.772 465.946L957.826 464.184ZM940.458 482.063C936.077 490.125 933.912 499.893 933.912 511.325H935.912C935.912 500.141 938.03 490.72 942.216 483.019L940.458 482.063ZM933.912 511.325C933.912 522.92 935.988 532.769 940.193 540.829L941.967 539.903C937.948 532.2 935.912 522.689 935.912 511.325H933.912ZM940.201 540.844C944.564 548.871 950.345 554.928 957.553 558.971L958.531 557.227C951.689 553.389 946.162 547.624 941.959 539.888L940.201 540.844ZM957.569 558.98C964.747 562.832 972.621 564.753 981.172 564.753V562.753C972.933 562.753 965.386 560.905 958.515 557.218L957.569 558.98ZM1141.45 460.439V461.439H1142.45V460.439H1141.45ZM1111.89 460.439V459.439H1110.89V460.439H1111.89ZM1111.89 582V583H1112.89V582H1111.89ZM1088.51 582H1087.51V583H1088.51V582ZM1088.51 460.439H1089.51V459.439H1088.51V460.439ZM1070.26 460.439H1069.26V461.439H1070.26V460.439ZM1070.26 441.164V440.164H1069.26V441.164H1070.26ZM1088.51 441.164V442.164H1089.51V441.164H1088.51ZM1100.59 396.703L1101.25 397.449L1101.25 397.448L1100.59 396.703ZM1139.91 385.652H1140.91V384.652H1139.91V385.652ZM1139.91 405.184V406.184H1140.91V405.184H1139.91ZM1118.06 411.352L1118.75 412.074L1118.76 412.073L1118.06 411.352ZM1111.89 441.164H1110.89V442.164H1111.89V441.164ZM1141.45 441.164H1142.45V440.164H1141.45V441.164ZM1141.45 459.439H1111.89V461.439H1141.45V459.439ZM1110.89 460.439V582H1112.89V460.439H1110.89ZM1111.89 581H1088.51V583H1111.89V581ZM1089.51 582V460.439H1087.51V582H1089.51ZM1088.51 459.439H1070.26V461.439H1088.51V459.439ZM1071.26 460.439V441.164H1069.26V460.439H1071.26ZM1070.26 442.164H1088.51V440.164H1070.26V442.164ZM1089.51 441.164V431.141H1087.51V441.164H1089.51ZM1089.51 431.141C1089.51 415.53 1093.49 404.381 1101.25 397.449L1099.92 395.957C1091.57 403.417 1087.51 415.227 1087.51 431.141H1089.51ZM1101.25 397.448C1109.21 390.321 1122.02 386.652 1139.91 386.652V384.652C1121.82 384.652 1108.41 388.35 1099.92 395.958L1101.25 397.448ZM1138.91 385.652V405.184H1140.91V385.652H1138.91ZM1139.91 404.184C1129.54 404.184 1121.94 406.247 1117.37 410.631L1118.76 412.073C1122.76 408.233 1129.71 406.184 1139.91 406.184V404.184ZM1117.37 410.63C1112.97 414.849 1110.89 421.78 1110.89 431.141H1112.89C1112.89 421.998 1114.93 415.737 1118.75 412.074L1117.37 410.63ZM1110.89 431.141V441.164H1112.89V431.141H1110.89ZM1111.89 442.164H1141.45V440.164H1111.89V442.164ZM1140.45 441.164V460.439H1142.45V441.164H1140.45ZM1341.58 492.564L1342.27 493.283L1342.27 493.283L1341.58 492.564ZM1260.62 507.213V506.213H1259.62V507.213H1260.62ZM1260.62 582V583H1261.62V582H1260.62ZM1237.23 582H1236.23V583H1237.23V582ZM1237.23 402.871V401.871H1236.23V402.871H1237.23ZM1341.06 417.52L1340.38 418.251L1340.39 418.256L1341.06 417.52ZM1323.84 479.457L1324.52 480.194L1324.52 480.194L1323.84 479.457ZM1260.62 422.146V421.146H1259.62V422.146H1260.62ZM1260.62 487.938H1259.62V488.938H1260.62V487.938ZM1356 455.299C1356 469.947 1350.96 482.105 1340.88 491.845L1342.27 493.283C1352.76 483.148 1358 470.463 1358 455.299H1356ZM1340.88 491.845C1331.03 501.36 1315.83 506.213 1295.06 506.213V508.213C1316.1 508.213 1331.9 503.3 1342.27 493.283L1340.88 491.845ZM1295.06 506.213H1260.62V508.213H1295.06V506.213ZM1259.62 507.213V582H1261.62V507.213H1259.62ZM1260.62 581H1237.23V583H1260.62V581ZM1238.23 582V402.871H1236.23V582H1238.23ZM1237.23 403.871H1295.06V401.871H1237.23V403.871ZM1295.06 403.871C1315.13 403.871 1330.18 408.718 1340.38 418.251L1341.75 416.789C1331.04 406.79 1315.43 401.871 1295.06 401.871V403.871ZM1340.39 418.256C1350.79 427.819 1356 440.137 1356 455.299H1358C1358 439.621 1352.58 426.753 1341.74 416.784L1340.39 418.256ZM1295.06 488.938C1308.2 488.938 1318.09 486.09 1324.52 480.194L1323.17 478.72C1317.26 484.132 1307.96 486.938 1295.06 486.938V488.938ZM1324.52 480.194C1330.94 474.305 1334.1 465.956 1334.1 455.299H1332.1C1332.1 465.545 1329.08 473.3 1323.17 478.72L1324.52 480.194ZM1334.1 455.299C1334.1 444.055 1330.86 435.451 1324.24 429.68C1317.65 423.933 1307.86 421.146 1295.06 421.146V423.146C1307.61 423.146 1316.84 425.885 1322.93 431.188C1328.99 436.468 1332.1 444.441 1332.1 455.299H1334.1ZM1295.06 421.146H1260.62V423.146H1295.06V421.146ZM1259.62 422.146V487.938H1261.62V422.146H1259.62ZM1260.62 488.938H1295.06V486.938H1260.62V488.938ZM1411.51 575.318L1411.01 576.189L1411.02 576.192L1411.51 575.318ZM1386.32 549.875L1385.44 550.349L1385.44 550.357L1385.45 550.365L1386.32 549.875ZM1386.58 473.289L1385.71 472.794L1385.71 472.799L1386.58 473.289ZM1412.28 447.846L1412.75 448.726L1412.76 448.72L1412.28 447.846ZM1484.75 447.846L1484.27 448.72L1484.28 448.726L1484.75 447.846ZM1510.19 473.032L1509.32 473.522L1509.33 473.532L1510.19 473.032ZM1509.94 549.875L1509.07 549.37L1509.07 549.374L1509.94 549.875ZM1483.98 575.318L1484.46 576.195L1484.46 576.195L1483.98 575.318ZM1488.86 540.109L1488 539.603L1488 539.61L1487.99 539.617L1488.86 540.109ZM1471.64 465.065L1471.16 465.942L1471.17 465.947L1471.18 465.951L1471.64 465.065ZM1424.61 465.065L1425.09 465.946L1425.09 465.942L1424.61 465.065ZM1407.65 482.541L1408.53 483.019L1408.53 483.019L1407.65 482.541ZM1407.39 540.366L1406.51 540.829L1406.51 540.836L1406.52 540.844L1407.39 540.366ZM1424.36 558.099L1423.87 558.971L1423.88 558.976L1423.88 558.98L1424.36 558.099ZM1447.49 583.313C1434.45 583.313 1422.63 580.352 1411.99 574.444L1411.02 576.192C1421.97 582.277 1434.14 585.313 1447.49 585.313V583.313ZM1412 574.447C1401.54 568.543 1393.27 560.196 1387.19 549.385L1385.45 550.365C1391.7 561.485 1400.23 570.099 1411.01 576.189L1412 574.447ZM1387.2 549.401C1381.29 538.431 1378.33 525.748 1378.33 511.325H1376.33C1376.33 526.029 1379.35 539.046 1385.44 550.349L1387.2 549.401ZM1378.33 511.325C1378.33 497.08 1381.38 484.574 1387.45 473.779L1385.71 472.799C1379.44 483.934 1376.33 496.786 1376.33 511.325H1378.33ZM1387.45 473.784C1393.7 462.802 1402.13 454.458 1412.75 448.726L1411.8 446.966C1400.84 452.884 1392.14 461.502 1385.71 472.794L1387.45 473.784ZM1412.76 448.72C1423.4 442.813 1435.31 439.851 1448.51 439.851V437.851C1434.99 437.851 1422.75 440.886 1411.79 446.972L1412.76 448.72ZM1448.51 439.851C1461.72 439.851 1473.63 442.813 1484.27 448.72L1485.24 446.972C1474.28 440.886 1462.03 437.851 1448.51 437.851V439.851ZM1484.28 448.726C1494.9 454.459 1503.25 462.717 1509.32 473.522L1511.07 472.542C1504.81 461.416 1496.19 452.884 1485.23 446.966L1484.28 448.726ZM1509.33 473.532C1515.57 484.324 1518.7 496.911 1518.7 511.325H1520.7C1520.7 496.613 1517.5 483.671 1511.06 472.531L1509.33 473.532ZM1518.7 511.325C1518.7 525.734 1515.48 538.406 1509.07 549.37L1510.8 550.38C1517.41 539.071 1520.7 526.042 1520.7 511.325H1518.7ZM1509.07 549.374C1502.82 560.183 1494.3 568.533 1483.5 574.441L1484.46 576.195C1495.59 570.11 1504.37 561.497 1510.8 550.376L1509.07 549.374ZM1483.5 574.441C1472.69 580.351 1460.69 583.313 1447.49 583.313V585.313C1461.01 585.313 1473.34 582.278 1484.46 576.195L1483.5 574.441ZM1447.49 564.753C1456.05 564.753 1464.09 562.742 1471.6 558.724L1470.66 556.96C1463.44 560.823 1455.72 562.753 1447.49 562.753V564.753ZM1471.6 558.724C1479.15 554.686 1485.19 548.633 1489.73 540.601L1487.99 539.617C1483.62 547.348 1477.84 553.116 1470.66 556.96L1471.6 558.724ZM1489.73 540.615C1494.46 532.548 1496.8 522.769 1496.8 511.325H1494.8C1494.8 522.497 1492.52 531.907 1488 539.603L1489.73 540.615ZM1496.8 511.325C1496.8 499.887 1494.55 490.113 1489.99 482.049L1488.25 483.033C1492.6 490.731 1494.8 500.147 1494.8 511.325H1496.8ZM1489.99 482.049C1485.45 474.02 1479.49 468.048 1472.11 464.179L1471.18 465.951C1478.19 469.621 1483.88 475.3 1488.25 483.033L1489.99 482.049ZM1472.12 464.188C1464.78 460.165 1456.82 458.154 1448.26 458.154V460.154C1456.49 460.154 1464.12 462.084 1471.16 465.942L1472.12 464.188ZM1448.26 458.154C1439.53 458.154 1431.48 460.163 1424.13 464.188L1425.09 465.942C1432.14 462.086 1439.85 460.154 1448.26 460.154V458.154ZM1424.14 464.184C1416.92 468.057 1411.14 474.033 1406.77 482.063L1408.53 483.019C1412.73 475.286 1418.25 469.612 1425.09 465.946L1424.14 464.184ZM1406.77 482.063C1402.39 490.125 1400.23 499.893 1400.23 511.325H1402.23C1402.23 500.141 1404.34 490.72 1408.53 483.019L1406.77 482.063ZM1400.23 511.325C1400.23 522.92 1402.3 532.769 1406.51 540.829L1408.28 539.903C1404.26 532.2 1402.23 522.689 1402.23 511.325H1400.23ZM1406.52 540.844C1410.88 548.871 1416.66 554.928 1423.87 558.971L1424.85 557.227C1418 553.389 1412.48 547.624 1408.27 539.888L1406.52 540.844ZM1423.88 558.98C1431.06 562.832 1438.94 564.753 1447.49 564.753V562.753C1439.25 562.753 1431.7 560.905 1424.83 557.218L1423.88 558.98ZM1619.74 413.665L1620.45 412.958L1620.45 412.958L1619.74 413.665ZM1619.74 391.049L1620.45 391.756L1620.45 391.756L1619.74 391.049ZM1641.84 391.049L1641.12 391.736L1641.13 391.746L1641.14 391.756L1641.84 391.049ZM1641.84 413.665L1641.14 412.958L1641.13 412.968L1641.12 412.978L1641.84 413.665ZM1642.36 441.164H1643.36V440.164H1642.36V441.164ZM1642.36 582V583H1643.36V582H1642.36ZM1618.97 582H1617.97V583H1618.97V582ZM1618.97 441.164V440.164H1617.97V441.164H1618.97ZM1631.05 417.291C1626.85 417.291 1623.34 415.85 1620.45 412.958L1619.03 414.372C1622.31 417.648 1626.34 419.291 1631.05 419.291V417.291ZM1620.45 412.958C1617.56 410.066 1616.11 406.553 1616.11 402.357H1614.11C1614.11 407.071 1615.76 411.096 1619.03 414.372L1620.45 412.958ZM1616.11 402.357C1616.11 398.161 1617.56 394.648 1620.45 391.756L1619.03 390.342C1615.76 393.618 1614.11 397.643 1614.11 402.357H1616.11ZM1620.45 391.756C1623.34 388.864 1626.85 387.423 1631.05 387.423V385.423C1626.34 385.423 1622.31 387.066 1619.03 390.342L1620.45 391.756ZM1631.05 387.423C1635.06 387.423 1638.39 388.854 1641.12 391.736L1642.57 390.362C1639.47 387.076 1635.6 385.423 1631.05 385.423V387.423ZM1641.14 391.756C1644.03 394.648 1645.47 398.161 1645.47 402.357H1647.47C1647.47 397.643 1645.83 393.618 1642.55 390.342L1641.14 391.756ZM1645.47 402.357C1645.47 406.553 1644.03 410.066 1641.14 412.958L1642.55 414.372C1645.83 411.096 1647.47 407.071 1647.47 402.357H1645.47ZM1641.12 412.978C1638.39 415.86 1635.06 417.291 1631.05 417.291V419.291C1635.6 419.291 1639.47 417.638 1642.57 414.352L1641.12 412.978ZM1641.36 441.164V582H1643.36V441.164H1641.36ZM1642.36 581H1618.97V583H1642.36V581ZM1619.97 582V441.164H1617.97V582H1619.97ZM1618.97 442.164H1642.36V440.164H1618.97V442.164ZM1682.22 473.289L1683.1 473.764L1683.1 473.758L1682.22 473.289ZM1706.37 447.846L1705.88 446.979L1705.87 446.982L1706.37 447.846ZM1784.76 451.444L1784.16 452.243L1784.16 452.247L1784.76 451.444ZM1807.12 486.396V487.396H1808.39L1808.09 486.161L1807.12 486.396ZM1781.93 486.396L1780.97 486.666L1781.17 487.396H1781.93V486.396ZM1767.8 466.093L1767.21 466.903L1767.22 466.909L1767.8 466.093ZM1709.71 472.518L1710.46 473.189L1710.46 473.182L1709.71 472.518ZM1709.71 550.646L1710.46 549.982L1710.46 549.982L1709.71 550.646ZM1767.8 557.328L1768.37 558.147L1768.37 558.147L1767.8 557.328ZM1781.93 536.768V535.768H1781.18L1780.97 536.491L1781.93 536.768ZM1807.12 536.768L1808.09 537.021L1808.41 535.768H1807.12V536.768ZM1784.5 571.463L1785.11 572.26L1785.11 572.254L1784.5 571.463ZM1706.37 575.318L1705.87 576.182L1705.88 576.185L1706.37 575.318ZM1682.22 549.875L1681.33 550.344L1681.33 550.344L1682.22 549.875ZM1674.48 511.325C1674.48 496.896 1677.36 484.387 1683.1 473.764L1681.34 472.814C1675.42 483.779 1672.48 496.627 1672.48 511.325H1674.48ZM1683.1 473.758C1688.84 462.95 1696.77 454.609 1706.88 448.71L1705.87 446.982C1695.42 453.077 1687.24 461.698 1681.33 472.82L1683.1 473.758ZM1706.87 448.713C1717.16 442.813 1728.89 439.851 1742.1 439.851V437.851C1728.58 437.851 1716.49 440.886 1705.88 446.979L1706.87 448.713ZM1742.1 439.851C1759.24 439.851 1773.23 444.007 1784.16 452.243L1785.36 450.645C1774.01 442.091 1759.57 437.851 1742.1 437.851V439.851ZM1784.16 452.247C1795.27 460.49 1802.6 471.931 1806.15 486.631L1808.09 486.161C1804.44 471.049 1796.87 459.189 1785.35 450.641L1784.16 452.247ZM1807.12 485.396H1781.93V487.396H1807.12V485.396ZM1782.89 486.126C1780.44 477.347 1775.59 470.383 1768.37 465.277L1767.22 466.909C1774.05 471.741 1778.63 478.312 1780.97 486.666L1782.89 486.126ZM1768.38 465.283C1761.33 460.166 1752.54 457.64 1742.1 457.64V459.64C1752.21 459.64 1760.56 462.082 1767.21 466.903L1768.38 465.283ZM1742.1 457.64C1728.47 457.64 1717.4 462.37 1708.97 471.854L1710.46 473.182C1718.48 464.162 1728.99 459.64 1742.1 459.64V457.64ZM1708.97 471.847C1700.53 481.17 1696.38 494.379 1696.38 511.325H1698.38C1698.38 494.69 1702.45 482.027 1710.46 473.189L1708.97 471.847ZM1696.38 511.325C1696.38 528.441 1700.53 541.817 1708.97 551.31L1710.46 549.982C1702.45 540.971 1698.38 528.133 1698.38 511.325H1696.38ZM1708.97 551.31C1717.4 560.794 1728.47 565.524 1742.1 565.524V563.524C1728.99 563.524 1718.48 559.002 1710.46 549.982L1708.97 551.31ZM1742.1 565.524C1752.53 565.524 1761.31 563.087 1768.37 558.147L1767.22 556.509C1760.57 561.164 1752.22 563.524 1742.1 563.524V565.524ZM1768.37 558.147C1775.43 553.204 1780.27 546.149 1782.89 537.045L1780.97 536.491C1778.46 545.206 1773.87 551.857 1767.22 556.509L1768.37 558.147ZM1781.93 537.768H1807.12V535.768H1781.93V537.768ZM1806.15 536.515C1802.43 550.702 1795.02 562.075 1783.89 570.672L1785.11 572.254C1796.6 563.375 1804.26 551.618 1808.09 537.021L1806.15 536.515ZM1783.9 570.666C1772.8 579.077 1758.88 583.313 1742.1 583.313V585.313C1759.23 585.313 1773.59 580.983 1785.11 572.26L1783.9 570.666ZM1742.1 583.313C1728.89 583.313 1717.16 580.351 1706.87 574.451L1705.88 576.185C1716.49 582.278 1728.58 585.313 1742.1 585.313V583.313ZM1706.88 574.454C1696.77 568.555 1688.84 560.214 1683.1 549.406L1681.33 550.344C1687.24 561.466 1695.42 570.087 1705.87 576.182L1706.88 574.454ZM1683.1 549.406C1677.36 538.61 1674.48 525.927 1674.48 511.325H1672.48C1672.48 526.193 1675.42 539.21 1681.33 550.344L1683.1 549.406ZM1959.63 441.164L1960.55 441.543L1961.12 440.164H1959.63V441.164ZM1874.82 648.306V649.306H1875.49L1875.74 648.685L1874.82 648.306ZM1850.66 648.306L1849.73 647.927L1849.17 649.306H1850.66V648.306ZM1878.42 580.458L1879.34 580.837L1879.5 580.459L1879.34 580.08L1878.42 580.458ZM1821.62 441.164V440.164H1820.13L1820.69 441.542L1821.62 441.164ZM1847.58 441.164L1848.51 440.803L1848.26 440.164H1847.58V441.164ZM1891.78 555.272L1890.85 555.633L1891.78 558.054L1892.71 555.63L1891.78 555.272ZM1935.47 441.164V440.164H1934.78L1934.54 440.806L1935.47 441.164ZM1958.7 440.785L1873.89 647.927L1875.74 648.685L1960.55 441.543L1958.7 440.785ZM1874.82 647.306H1850.66V649.306H1874.82V647.306ZM1851.58 648.685L1879.34 580.837L1877.49 580.079L1849.73 647.927L1851.58 648.685ZM1879.34 580.08L1822.54 440.786L1820.69 441.542L1877.49 580.836L1879.34 580.08ZM1821.62 442.164H1847.58V440.164H1821.62V442.164ZM1846.64 441.525L1890.85 555.633L1892.71 554.911L1848.51 440.803L1846.64 441.525ZM1892.71 555.63L1936.4 441.522L1934.54 440.806L1890.85 554.914L1892.71 555.63ZM1935.47 442.164H1959.63V440.164H1935.47V442.164Z" fill="#232323" mask="url(#path-1-outside-1_159_4)"/>
</svg>
